<svg width="211" height="141" fill="none" xmlns="http://www.w3.org/2000/svg"><path d="M139.413 18.554L148.468.5h-9.055l-9.026 18.054h9.026zm5.17 82.103h1.052v-.816h-2.95v.816h1.022v3.179h.876v-3.179z" fill="#11191C"/><path fill-rule="evenodd" clip-rule="evenodd" d="M131.936 111.945a8.077 8.077 0 012.774-.438l3.71-.087v-.467a2.12 2.12 0 00-.643-1.779 3.477 3.477 0 00-2.073-.496 4.124 4.124 0 00-1.665.263c-.465.245-.888.56-1.256.933l-3.418-3.412a9.13 9.13 0 011.373-1.138c.456-.3.946-.545 1.46-.729a7.797 7.797 0 011.724-.408c.68-.049 1.364-.049 2.044 0a9.406 9.406 0 015.842 1.604 5.827 5.827 0 012.045 4.958v11.667h-5.345v-1.458a5.882 5.882 0 01-1.695 1.225 5.326 5.326 0 01-2.336.408 6.598 6.598 0 01-2.454-.408 5.135 5.135 0 01-1.869-1.196 5.385 5.385 0 01-1.198-1.867 6.904 6.904 0 01-.38-2.363 5.173 5.173 0 01.351-1.983 4.154 4.154 0 011.11-1.662 5.372 5.372 0 011.899-1.167zm6.372 4.668c.096-.312.124-.64.083-.964l.117-.583h-2.921a1.722 1.722 0 00-1.256.408 1.283 1.283 0 00-.497 1.021 1.338 1.338 0 00.467 1.05 1.782 1.782 0 001.373.467 4.98 4.98 0 001.256 0c.343-.108.654-.298.906-.554.215-.245.376-.533.472-.845z" fill="#11191C"/><path d="M150.717 5.02l-4.527 9.013h9.055v117.425h-99.49V14.033h72.354l4.527-9.013H46.7V140.5h117.6V5.02h-13.583z" fill="#11191C"/><path d="M150.279 99.84v3.996h-.876v-2.362l-.759 1.458h-.789l-.73-1.458v2.362h-.877v-3.995h.877l1.139 2.129 1.139-2.13h.876z" fill="#11191C"/><path fill-rule="evenodd" clip-rule="evenodd" d="M94.722 122.416v-11.667a6 6 0 00-2.045-4.958 9.41 9.41 0 00-5.842-1.604 14.237 14.237 0 00-2.045 0 7.79 7.79 0 00-1.723.408 6.865 6.865 0 00-1.46.729 9.16 9.16 0 00-1.374 1.138l3.447 3.412a4.564 4.564 0 011.227-.933 4.127 4.127 0 011.665-.263 3.48 3.48 0 012.074.496 2.213 2.213 0 01.642 1.779v.467H85.55a7.926 7.926 0 00-2.921.437 5.39 5.39 0 00-1.899 1.167c-.5.456-.88 1.027-1.11 1.663a5.83 5.83 0 00-.38 1.983 6.931 6.931 0 00.41 2.363 5.015 5.015 0 001.197 1.866 5.14 5.14 0 001.87 1.196 6.478 6.478 0 002.453.409 5.33 5.33 0 002.337-.409 5.836 5.836 0 001.694-1.225v1.458l5.52.088zm-5.492-6.767a2.305 2.305 0 01-.555 1.809 2.194 2.194 0 01-.905.554 4.98 4.98 0 01-1.256 0c-.25.022-.5-.008-.737-.088a1.77 1.77 0 01-.636-.379 1.372 1.372 0 01-.35-1.605 1.38 1.38 0 01.35-.466 1.84 1.84 0 011.285-.408h2.921l-.117.583zm37.886-6.269c.366 1.081.554 2.214.555 3.354l-.117 2.567h-10.837c.01.741.303 1.45.818 1.984a3.108 3.108 0 002.366.875 5.038 5.038 0 002.22-.409 5.837 5.837 0 001.519-1.108l3.301 3.266a16.84 16.84 0 01-1.403 1.226 7.334 7.334 0 01-1.548.875 7.16 7.16 0 01-1.84.554 12.85 12.85 0 01-2.249.204 13.819 13.819 0 01-2.921-.379 6.561 6.561 0 01-2.746-1.342 6.946 6.946 0 01-2.015-2.917 12.426 12.426 0 01-.789-4.725c-.023-1.337.184-2.67.613-3.937a9.203 9.203 0 011.665-2.917 7.303 7.303 0 012.542-1.779 8.48 8.48 0 013.271-.612 8.777 8.777 0 013.476.67 7.517 7.517 0 012.571 1.838 7.775 7.775 0 011.548 2.712zm-10.311 1.459a3.065 3.065 0 000 .729h5.257a5.91 5.91 0 000-.729 1.597 1.597 0 00-.102-.27c-.065-.147-.131-.298-.131-.46a2.93 2.93 0 00-.847-.991 2.482 2.482 0 00-1.548-.408 2.456 2.456 0 00-1.549.408 2.729 2.729 0 00-.847.991c-.1.236-.178.48-.233.73zM78.16 122.416V99.841h-5.492v5.833a4.726 4.726 0 00-1.723-1.108 6.174 6.174 0 00-2.308-.38 6.944 6.944 0 00-2.483.438 5.828 5.828 0 00-1.928 1.167 4.49 4.49 0 00-.993 1.575 7.858 7.858 0 00-.496 1.896 16.009 16.009 0 00-.176 2.07v4.113c.013.693.071 1.385.176 2.071.09.659.256 1.305.496 1.925.211.583.55 1.111.993 1.546.549.547 1.22.957 1.957 1.195a6.958 6.958 0 002.483.467c.81.02 1.617-.129 2.366-.437a6.138 6.138 0 001.957-1.255v1.459h5.17zm-5.55-7.234a4.303 4.303 0 01-.322 1.342 1.75 1.75 0 01-.7.875c-.37.219-.798.32-1.227.292a2.286 2.286 0 01-1.257-.292 2.13 2.13 0 01-.7-.875 4.345 4.345 0 01-.293-1.342 16.864 16.864 0 010-1.779 16.094 16.094 0 010-1.779 4.57 4.57 0 01.292-1.371c.152-.34.395-.633.701-.846a2.289 2.289 0 011.257-.321c.432-.021.86.091 1.226.321.323.195.57.493.701.846.178.438.287.9.322 1.371v1.779c0 .233.003.452.007.662.006.394.012.756-.007 1.117z" fill="#11191C"/><path d="M95.978 122.416V99.841h5.491v10.821l4.878-6.3h6.631l-6.66 7.496 6.835 10.558h-6.835l-3.768-6.592-1.081 1.167v5.425h-5.491z" fill="#11191C"/><path d="M139.413 18.554L148.468.5h-9.055l-9.026 18.054h9.026z" fill="#E98503"/><path fill-rule="evenodd" clip-rule="evenodd" d="M127.116 109.38c.366 1.081.553 2.214.555 3.354l-.117 2.567h-10.837c.01.741.303 1.45.818 1.984a3.108 3.108 0 002.366.875 5.038 5.038 0 002.22-.409 5.837 5.837 0 001.519-1.108l3.3 3.266c-.444.435-.912.843-1.402 1.226a7.334 7.334 0 01-1.548.875 7.132 7.132 0 01-1.84.554 12.85 12.85 0 01-2.249.204 13.819 13.819 0 01-2.921-.379 6.555 6.555 0 01-2.746-1.342 6.937 6.937 0 01-2.015-2.917 12.426 12.426 0 01-.789-4.725c-.023-1.337.184-2.67.613-3.937a9.184 9.184 0 011.665-2.917 7.3 7.3 0 012.541-1.779 8.49 8.49 0 013.272-.612 8.78 8.78 0 013.476.67 7.504 7.504 0 012.57 1.838 7.762 7.762 0 011.549 2.712zm-10.312 1.459a3.174 3.174 0 000 .729h5.258a5.91 5.91 0 000-.729c-.022-.09-.062-.179-.102-.27-.065-.147-.131-.298-.131-.46a2.93 2.93 0 00-.847-.991 2.485 2.485 0 00-1.549-.408 2.455 2.455 0 00-1.548.408 2.72 2.72 0 00-.847.991c-.1.236-.178.48-.234.73z" fill="#E98503"/></svg>