<svg width="160" height="140" fill="none" xmlns="http://www.w3.org/2000/svg"><path d="M113.913 18.054L122.968 0h-9.055l-9.026 18.054h9.026zm5.17 82.103h1.051v-.816h-2.95v.816h1.023v3.179h.876v-3.179z" fill="#11191C"/><path fill-rule="evenodd" clip-rule="evenodd" d="M106.435 111.445a8.079 8.079 0 012.775-.438l3.71-.087v-.467a2.134 2.134 0 00-.643-1.779 3.48 3.48 0 00-2.074-.496 4.13 4.13 0 00-1.665.263 5.13 5.13 0 00-1.256.933l-3.418-3.412a9.23 9.23 0 011.373-1.138c.456-.3.947-.545 1.461-.729a7.788 7.788 0 011.723-.408 14.243 14.243 0 012.045 0 9.41 9.41 0 015.842 1.604 5.837 5.837 0 012.045 4.958v11.667h-5.346v-1.458a5.864 5.864 0 01-1.694 1.225 5.33 5.33 0 01-2.337.408 6.605 6.605 0 01-2.454-.408 5.152 5.152 0 01-1.869-1.196 5.396 5.396 0 01-1.197-1.867 6.88 6.88 0 01-.38-2.363 5.19 5.19 0 01.35-1.983 4.174 4.174 0 011.11-1.662 5.381 5.381 0 011.899-1.167zm6.372 4.668c.096-.312.124-.64.083-.964l.117-.583h-2.921a1.717 1.717 0 00-1.256.408 1.28 1.28 0 00-.497 1.021 1.353 1.353 0 00.468 1.05 1.8 1.8 0 001.373.467 4.98 4.98 0 001.256 0c.343-.108.654-.298.905-.554.216-.245.377-.533.472-.845z" fill="#11191C"/><path d="M125.217 4.52l-4.527 9.013h9.054v117.425h-99.49V13.533h72.354l4.528-9.013H21.2V140h117.6V4.52h-13.583z" fill="#11191C"/><path d="M124.779 99.34v3.996h-.876v-2.362l-.76 1.458h-.788l-.731-1.458v2.362h-.876v-3.995h.876l1.139 2.129 1.14-2.13h.876z" fill="#11191C"/><path fill-rule="evenodd" clip-rule="evenodd" d="M69.221 121.916v-11.667a6 6 0 00-2.044-4.958 9.41 9.41 0 00-5.843-1.604 14.237 14.237 0 00-2.044 0 7.79 7.79 0 00-1.724.408 6.865 6.865 0 00-1.46.729 9.16 9.16 0 00-1.373 1.138l3.447 3.412a4.564 4.564 0 011.227-.933 4.127 4.127 0 011.665-.263 3.48 3.48 0 012.073.496 2.214 2.214 0 01.643 1.779v.467h-3.739a7.925 7.925 0 00-2.92.437 5.39 5.39 0 00-1.9 1.167 4.178 4.178 0 00-1.11 1.663 5.83 5.83 0 00-.38 1.983 6.933 6.933 0 00.41 2.363 5.015 5.015 0 001.197 1.866c.529.53 1.167.938 1.87 1.196a6.478 6.478 0 002.453.409 5.33 5.33 0 002.337-.409 5.834 5.834 0 001.694-1.225v1.458l5.521.088zm-5.491-6.767a2.305 2.305 0 01-.555 1.809 2.194 2.194 0 01-.906.554 4.98 4.98 0 01-1.256 0 1.8 1.8 0 01-.736-.088 1.77 1.77 0 01-.637-.379 1.374 1.374 0 01-.349-1.605c.081-.178.2-.337.35-.466a1.84 1.84 0 011.284-.408h2.922l-.117.583zm37.885-6.269c.367 1.081.554 2.214.555 3.354l-.117 2.567H91.216a2.92 2.92 0 00.818 1.984 3.106 3.106 0 002.366.875 5.036 5.036 0 002.22-.409 5.837 5.837 0 001.52-1.108l3.3 3.266c-.444.435-.912.843-1.402 1.226a7.353 7.353 0 01-1.548.875 7.172 7.172 0 01-1.84.554c-.743.134-1.495.202-2.25.204a13.824 13.824 0 01-2.92-.379 6.558 6.558 0 01-2.746-1.342 6.943 6.943 0 01-2.016-2.917 12.437 12.437 0 01-.788-4.725 11.63 11.63 0 01.613-3.937 9.184 9.184 0 011.665-2.917 7.297 7.297 0 012.541-1.779 8.484 8.484 0 013.272-.612 8.778 8.778 0 013.476.67 7.51 7.51 0 012.57 1.838 7.744 7.744 0 011.548 2.712zm-10.31 1.459a3.076 3.076 0 000 .729h5.257a6.2 6.2 0 000-.729c-.022-.09-.062-.179-.102-.27-.065-.147-.132-.298-.132-.46a2.923 2.923 0 00-.847-.991 2.482 2.482 0 00-1.548-.408 2.455 2.455 0 00-1.548.408 2.71 2.71 0 00-.847.991c-.1.236-.178.48-.234.73zM52.66 121.916V99.341h-5.492v5.833a4.726 4.726 0 00-1.724-1.108 6.174 6.174 0 00-2.307-.38 6.943 6.943 0 00-2.483.438 5.827 5.827 0 00-1.928 1.167c-.438.45-.776.986-.993 1.575a7.858 7.858 0 00-.497 1.896 16.009 16.009 0 00-.175 2.07v4.113c.012.693.07 1.385.175 2.071.09.659.256 1.305.497 1.925.21.583.55 1.111.993 1.546.548.547 1.22.957 1.957 1.195a6.958 6.958 0 002.483.467 5.85 5.85 0 002.366-.437 6.138 6.138 0 001.957-1.255v1.459h5.17zm-5.55-7.234a4.305 4.305 0 01-.322 1.342c-.131.36-.378.668-.701.875-.37.219-.798.32-1.227.292a2.286 2.286 0 01-1.256-.292 2.13 2.13 0 01-.701-.875 4.345 4.345 0 01-.292-1.342 16.864 16.864 0 010-1.779 16.143 16.143 0 010-1.779 4.55 4.55 0 01.292-1.371c.152-.34.394-.633.701-.846a2.289 2.289 0 011.256-.321c.432-.021.86.091 1.227.321.323.195.57.493.7.846.179.438.288.9.322 1.371v1.779c0 .233.004.452.007.662.006.394.012.756-.007 1.117z" fill="#11191C"/><path d="M70.477 121.916V99.341h5.492v10.821l4.878-6.3h6.63l-6.66 7.496 6.836 10.558h-6.835l-3.769-6.592-1.08 1.167v5.425h-5.492z" fill="#11191C"/><path d="M113.913 18.054L122.968 0h-9.055l-9.026 18.054h9.026z" fill="#E98503"/><path fill-rule="evenodd" clip-rule="evenodd" d="M101.616 108.88c.366 1.081.554 2.214.555 3.354l-.117 2.567H91.217c.01.741.303 1.45.818 1.984a3.106 3.106 0 002.366.875 5.036 5.036 0 002.22-.409 5.837 5.837 0 001.519-1.108l3.301 3.266c-.445.435-.913.843-1.402 1.226a7.365 7.365 0 01-1.549.875 7.134 7.134 0 01-1.84.554 12.85 12.85 0 01-2.249.204 13.824 13.824 0 01-2.92-.379 6.558 6.558 0 01-2.747-1.342 6.942 6.942 0 01-2.015-2.917 12.437 12.437 0 01-.789-4.725c-.023-1.337.184-2.67.613-3.937a9.188 9.188 0 011.665-2.917 7.298 7.298 0 012.542-1.779 8.483 8.483 0 013.271-.612 8.778 8.778 0 013.476.67 7.515 7.515 0 012.571 1.838 7.775 7.775 0 011.548 2.712zm-10.311 1.459a3.076 3.076 0 000 .729h5.258a6.2 6.2 0 000-.729 1.693 1.693 0 00-.103-.27c-.064-.147-.131-.298-.131-.46a2.923 2.923 0 00-.847-.991 2.482 2.482 0 00-1.548-.408 2.455 2.455 0 00-1.549.408 2.72 2.72 0 00-.847.991c-.1.236-.178.48-.233.73z" fill="#E98503"/></svg>