<svg width="160" height="51" fill="none" xmlns="http://www.w3.org/2000/svg"><path d="M149.163 24.549c0-.413-.294-.64-.828-.64h-.666v1.277h.666c.378 0 .828-.11.828-.637z" fill="#E00"/><path fill-rule="evenodd" clip-rule="evenodd" d="M148.278 22.17c-2.025 0-3.553 1.428-3.553 3.32 0 1.903 1.535 3.338 3.572 3.338 2.013 0 3.533-1.435 3.533-3.338 0-1.892-1.527-3.32-3.552-3.32zm-1.514 1.062h1.625c1.068 0 1.681.479 1.681 1.317 0 .597-.378 1.032-1.034 1.21.049.068 1.305 1.903 1.305 1.903h-.071l-.971-.018s-1.185-1.748-1.185-1.78h-.405v1.798h-.945v-4.43z" fill="#E00"/><path fill-rule="evenodd" clip-rule="evenodd" d="M160 50.5H0V.5h160v50zm-14.941-16.292h-3.133l-6.651-8.806 6.155-8.615h3.629v-4.46h-11.543v4.191h2.37l-3.518 4.926-3.862-4.926h2.488v-4.191h-12.208v4.46h2.42l6.305 8.344-6.385 9.077h-2.945v4.463h11.129v-4.192h-2.638l3.899-5.468 4.015 5.468h-2.639v4.192h13.112v-4.463zm-28.5-21.881h-9.827v4.46h2.303v13.618c0 2.99-2.039 4.114-4.567 4.114-3.013 0-4.3-1.746-4.3-4.344V16.787h2.254v-4.46H90.34v4.46h3.06v13.774c0 6.443 4.981 8.42 10.371 8.42 3.895 0 10.208-1.32 10.208-7.45V16.787h2.58v-4.46zm-76.053 0H29.732v4.46h2.87l-4.68 13.342h-.076l-4.32-13.342h2.982v-4.46H13.662v4.46h3.06l7.733 21.89h6.091l7.462-21.89h2.498v-4.46zm50.102 17.956h-5.085v3.925h-6.538v-17.42h3.787v-4.461H68.51v4.46h3.706v17.421H68.51v4.463h22.098v-8.387zM65.316 12.327H42.733v4.46h2.82v17.421h-3.06v4.463h22.823v-8.379h-4.932v3.916h-8.067v-6.905h6.5v-4.461h-6.5v-6.055h8.067v3.881h4.932v-8.341zm82.943 17.27c-2.483 0-4.353-1.76-4.353-4.098 0-2.337 1.879-4.101 4.37-4.101 2.495 0 4.377 1.764 4.377 4.1 0 2.338-1.889 4.1-4.394 4.1z" fill="#E00"/></svg>