<svg width="211" height="141" fill="none" xmlns="http://www.w3.org/2000/svg"><path d="M196.276 69.168c0-.577-.386-.895-1.087-.895h-.873v1.787h.873c.497 0 1.087-.154 1.087-.892z" fill="#E00"/><path fill-rule="evenodd" clip-rule="evenodd" d="M195.115 65.837c-2.658 0-4.664 2-4.664 4.65 0 2.663 2.016 4.673 4.689 4.673 2.642 0 4.636-2.01 4.636-4.674 0-2.648-2.003-4.649-4.661-4.649zm-1.988 1.488h2.133c1.402 0 2.207.67 2.207 1.843 0 .837-.497 1.445-1.358 1.695.065.095 1.713 2.664 1.713 2.664h-.092l-1.275-.025s-1.556-2.448-1.556-2.491h-.531v2.516h-1.241v-6.202z" fill="#E00"/><path fill-rule="evenodd" clip-rule="evenodd" d="M210.5 105.5H.5v-70h210v70zm-19.611-22.809h-4.111l-8.73-12.328 8.078-12.06h4.763v-6.245h-15.15v5.868h3.112l-4.618 6.896-5.069-6.896h3.266v-5.868h-16.024v6.244h3.177l8.276 11.681-8.381 12.708h-3.865v6.248h14.607v-5.868h-3.463l5.118-7.655 5.269 7.655h-3.464v5.868h17.209v-6.248zm-37.406-30.633h-12.897v6.244h3.022v19.065c0 4.185-2.676 5.76-5.994 5.76-3.954 0-5.643-2.445-5.643-6.081V58.302h2.957v-6.244h-15.857v6.244h4.016v19.284c0 9.02 6.538 11.788 13.613 11.788 5.112 0 13.397-1.849 13.397-10.43V58.302h3.386v-6.244zm-99.819 0h-14.14v6.244h3.766l-6.143 18.679h-.099l-5.67-18.679h3.914v-6.244h-16.86v6.244h4.015l10.15 30.646h7.995l9.794-30.646h3.278v-6.244zm65.759 25.139h-6.674v5.494h-8.581V58.302h4.97v-6.244H90.419v6.244h4.865v24.39H90.42v6.247h29.004V77.197zm-33.196-25.14h-29.64v6.245h3.702v24.39h-4.016v6.247h29.954V77.21h-6.473v5.482H69.166v-9.668h8.532V66.78h-8.531v-8.477h10.587v5.433h6.473V52.058zm108.864 24.18c-3.26 0-5.714-2.466-5.714-5.738 0-3.273 2.466-5.742 5.735-5.742 3.275 0 5.745 2.47 5.745 5.742s-2.479 5.738-5.766 5.738z" fill="#E00"/></svg>