<svg width="129" height="41" fill="none" xmlns="http://www.w3.org/2000/svg"><path d="M120.262 19.72c0-.338-.237-.524-.667-.524h-.537v1.046h.537c.305 0 .667-.09.667-.522z" fill="#E00"/><path fill-rule="evenodd" clip-rule="evenodd" d="M119.549 17.769c-1.632 0-2.865 1.172-2.865 2.723 0 1.56 1.238 2.737 2.881 2.737 1.623 0 2.848-1.177 2.848-2.737 0-1.551-1.231-2.723-2.864-2.723zm-1.221.872h1.31c.861 0 1.356.392 1.356 1.079 0 .49-.305.846-.834.992.04.056 1.052 1.56 1.052 1.56h-.057l-.783-.014s-.955-1.433-.955-1.459h-.327v1.474h-.762V18.64z" fill="#E00"/><path fill-rule="evenodd" clip-rule="evenodd" d="M129 41H0V0h129v41zm-12.047-13.36h-2.525l-5.363-7.22 4.963-7.064h2.925V9.698h-9.306v3.437h1.911l-2.836 4.04-3.114-4.04h2.006V9.698h-9.843v3.658h1.951l5.084 6.841-5.148 7.444h-2.374v3.66h8.973v-3.438h-2.128l3.144-4.484 3.237 4.484h-2.128V31.3h10.571v-3.66zM93.975 9.699h-7.922v3.658h1.856v11.166c0 2.452-1.644 3.374-3.682 3.374-2.429 0-3.466-1.432-3.466-3.562V13.356h1.816V9.698h-9.74v3.658h2.466V24.65c0 5.283 4.017 6.905 8.363 6.905 3.14 0 8.23-1.083 8.23-6.11v-12.09h2.08V9.699zm-61.317 0h-8.686v3.658h2.313l-3.773 10.94h-.061l-3.483-10.94h2.404V9.698H11.015v3.658h2.467l6.235 17.95h4.91l6.017-17.95h2.014V9.698zm40.395 14.724h-4.1v3.219h-5.271V13.356h3.053V9.698H55.236v3.658h2.989V27.64h-2.989v3.66h17.817v-6.878zM52.66 9.698H34.454v3.658h2.273V27.64H34.26v3.66h18.401v-6.87h-3.976v3.21H42.18v-5.662h5.24V18.32h-5.24v-4.964h6.504v3.182h3.976v-6.84zm66.873 14.162c-2.002 0-3.51-1.444-3.51-3.36 0-1.917 1.515-3.364 3.523-3.364 2.012 0 3.529 1.447 3.529 3.363 0 1.917-1.522 3.361-3.542 3.361z" fill="#E00"/></svg>