<svg width="160" height="67" fill="none" xmlns="http://www.w3.org/2000/svg"><path d="M95.397.433L160 65.99h-5.325L93.253 3.637 32.063 65.99H0L64.608.436 95.396.433z" fill="#E00"/><path fill-rule="evenodd" clip-rule="evenodd" d="M75.792 54.925l6.733 11.078h-6.243l-6.156-10.196h-3.435v10.2h-5.333V40.896h10.525c4.232.032 8.55 2.359 8.55 7.21 0 2.734-1.658 5.325-4.641 6.819zm-4.675-3.209c2.316-.041 3.69-1.218 3.69-3.446 0-2.226-1.374-3.161-3.69-3.2h-4.443v6.646h4.443z" fill="#E00"/><path d="M106.499 60.678c0 3.775.848 5.889 4.847 5.889.702 0 3.444-.236 4.025-.522v-3.047c-.173.01-.346.025-.519.04-.373.03-.745.06-1.121.06-1.774 0-2.122-.616-2.122-2.903V52.13h3.861v-3.464h-3.861v-5.3l-5.11 1.875v3.425h-3.453v3.464h3.453v8.549z" fill="#E00"/><path fill-rule="evenodd" clip-rule="evenodd" d="M83.666 57.358c0 5.465 3.353 9.209 8.945 9.209 5.601 0 8.937-3.744 8.937-9.209 0-5.47-3.336-9.213-8.937-9.213-5.592 0-8.945 3.744-8.945 9.213zm12.604 0c0 2.767-.516 5.74-3.659 5.74-3.134 0-3.65-2.973-3.65-5.74 0-2.765.516-5.747 3.65-5.747 3.143 0 3.66 2.982 3.66 5.747zm30.445 9.209c-5.584 0-8.92-3.744-8.92-9.209 0-5.47 3.336-9.213 8.92-9.213 5.613 0 8.941 3.744 8.941 9.213 0 5.465-3.328 9.209-8.941 9.209zm0-3.469c3.159 0 3.659-2.973 3.659-5.74 0-2.765-.5-5.747-3.659-5.747-3.121 0-3.638 2.982-3.638 5.747 0 2.767.517 5.74 3.638 5.74z" fill="#E00"/></svg>