<svg width="211" height="141" fill="none" xmlns="http://www.w3.org/2000/svg"><path d="M125.875 27.1l84.792 86.043h-6.989l-80.617-81.838-80.311 81.838H.667l84.798-86.04 40.41-.003z" fill="#E00"/><path fill-rule="evenodd" clip-rule="evenodd" d="M100.144 98.62l8.837 14.54h-8.193l-8.08-13.382h-4.509v13.388h-7v-32.96h13.814c5.555.044 11.222 3.097 11.222 9.464 0 3.59-2.175 6.99-6.091 8.95zm-6.136-4.211c3.04-.055 4.842-1.6 4.842-4.524 0-2.921-1.802-4.148-4.842-4.2h-5.831v8.724h5.83z" fill="#E00"/><path d="M140.447 106.171c0 4.954 1.113 7.729 6.362 7.729.921 0 4.52-.309 5.283-.685v-3.999a30.81 30.81 0 00-.682.052c-.489.04-.977.08-1.471.08-2.328 0-2.786-.809-2.786-3.81V94.951h5.069v-4.547h-5.069v-6.955l-6.706 2.46v4.495h-4.532v4.547h4.532v11.22z" fill="#E00"/><path fill-rule="evenodd" clip-rule="evenodd" d="M110.478 101.814c0 7.172 4.402 12.086 11.741 12.086 7.351 0 11.73-4.914 11.73-12.086 0-7.179-4.379-12.092-11.73-12.092-7.339 0-11.741 4.913-11.741 12.092zm16.544 0c0 3.632-.678 7.533-4.803 7.533-4.113 0-4.791-3.901-4.791-7.533 0-3.63.678-7.543 4.791-7.543 4.125 0 4.803 3.913 4.803 7.543zM166.98 113.9c-7.328 0-11.707-4.914-11.707-12.086 0-7.179 4.379-12.092 11.707-12.092 7.368 0 11.735 4.913 11.735 12.092 0 7.172-4.367 12.086-11.735 12.086zm0-4.553c4.147 0 4.803-3.901 4.803-7.533 0-3.63-.656-7.543-4.803-7.543-4.096 0-4.774 3.913-4.774 7.543 0 3.632.678 7.533 4.774 7.533z" fill="#E00"/></svg>