<svg width="85" height="85" fill="none" xmlns="http://www.w3.org/2000/svg"><path d="M40.556 21.744c-3.56-3.585-4.374-4.293-7.16-4.013m5.594 51.601l4.28 4.314a5.267 5.267 0 007.515 0 5.428 5.428 0 000-7.609l.016-.016a5.267 5.267 0 007.514 0 5.428 5.428 0 000-7.609l.042-.043a5.267 5.267 0 007.515 0 5.428 5.428 0 000-7.608l-1.126-1.128M9.953 41.364l5.93 5.702m11.804 3.255l-4.299 4.364a5.267 5.267 0 01-7.514 0 5.428 5.428 0 010-7.608l4.298-4.365a5.267 5.267 0 017.515 0 5.428 5.428 0 010 7.61zm7.53 7.625l-4.3 4.364a5.267 5.267 0 01-7.514 0 5.428 5.428 0 010-7.608l4.299-4.365a5.267 5.267 0 017.515 0 5.428 5.428 0 010 7.609z" stroke="#E00" stroke-width="4.5" stroke-miterlimit="10" stroke-linecap="round" stroke-linejoin="round"/><path d="M42.72 65.545l-4.298 4.364a5.267 5.267 0 01-7.515 0 5.428 5.428 0 010-7.609l4.299-4.364a5.267 5.267 0 017.514 0 5.428 5.428 0 010 7.609zM75.036 39.27l-10.22 10.294-17.423-17.296-4.059 4.07a5.945 5.945 0 01-8.452-.02 6.053 6.053 0 01.002-8.495l3.191-3.25c4.038-4.067 7.417-7.467 16.158-6.263m-20.836-.565l-6.875-6.927-23.43 23.606 6.875 6.926" stroke="#E00" stroke-width="4.5" stroke-miterlimit="10" stroke-linecap="round" stroke-linejoin="round"/><path d="M75.035 39.269l6.875-6.927L61.1 11.376l-6.875 6.927" stroke="#E00" stroke-width="4.5" stroke-miterlimit="10" stroke-linecap="round" stroke-linejoin="round"/></svg>