<svg width="85" height="86" fill="none" xmlns="http://www.w3.org/2000/svg"><path d="M72.55 72.992c0-5.3 0-7.95-.644-10.106-1.45-4.855-5.19-8.654-9.969-10.127-2.122-.654-4.73-.654-9.948-.654H33.3c-5.218 0-7.826 0-9.948.655-4.78 1.472-8.52 5.271-9.969 10.126-.644 2.156-.644 4.806-.644 10.106m46.728-51.267c0 9.438-7.532 17.09-16.822 17.09s-16.822-7.652-16.822-17.09c0-9.438 7.531-17.089 16.822-17.089 9.29 0 16.822 7.651 16.822 17.09z" stroke="#E00" stroke-width="4.5" stroke-linecap="round" stroke-linejoin="round"/><path d="M34.186 70.402l4.86-17.638h7.174l3.803 17.75a4 4 0 01-.71 3.238l-6.478 8.636a1 1 0 01-1.6 0l-6.392-8.523a4 4 0 01-.657-3.463z" stroke="#E00" stroke-width="4.5"/></svg>