<svg width="85" height="85" fill="none" xmlns="http://www.w3.org/2000/svg"><path d="M13.61 73.655C18.422 79 26.165 79 41.65 79c15.486 0 23.228 0 28.04-5.345C74.5 68.309 74.5 59.706 74.5 42.5c0-17.206 0-25.81-4.81-31.155C64.877 6 57.135 6 41.65 6c-15.486 0-23.23 0-28.04 5.345C8.8 16.691 8.8 25.294 8.8 42.5c0 17.206 0 25.81 4.81 31.155z" stroke="#0E4B90" stroke-width="4.5"/><path d="M23.4 27.9c0-1.697 0-2.546.186-3.242a5.475 5.475 0 013.871-3.871c.697-.187 1.545-.187 3.242-.187h21.9c1.698 0 2.546 0 3.243.187a5.475 5.475 0 013.87 3.871c.187.696.187 1.545.187 3.242s0 2.546-.186 3.242a5.475 5.475 0 01-3.871 3.872c-.697.186-1.545.186-3.243.186H30.7c-1.697 0-2.545 0-3.242-.186a5.475 5.475 0 01-3.871-3.872c-.187-.696-.187-1.545-.187-3.242z" stroke="#0E4B90" stroke-width="4.5"/><circle cx="27.049" cy="46.15" fill="#0E4B90" r="3.65"/><circle cx="27.049" cy="60.75" fill="#0E4B90" r="3.65"/><circle cx="41.65" cy="46.15" fill="#0E4B90" r="3.65"/><circle cx="41.65" cy="60.75" fill="#0E4B90" r="3.65"/><circle cx="56.25" cy="46.15" fill="#0E4B90" r="3.65"/><circle cx="56.25" cy="60.75" fill="#0E4B90" r="3.65"/></svg>