<svg width="22" height="22" fill="none" xmlns="http://www.w3.org/2000/svg"><path d="M15.865 9.263c1.745 0 3.187.47 4.326 1.41a4.881 4.881 0 011.326 1.733c.322.708.483 1.489.483 2.342 0 1.352-.375 2.432-1.125 3.239-.673.72-1.431 1.08-2.276 1.08-.9 0-1.395-.41-1.484-1.228-.555.818-1.306 1.227-2.25 1.227-.762 0-1.364-.22-1.81-.662-.483-.476-.724-1.128-.724-1.958 0-.552.11-1.093.329-1.624a4.19 4.19 0 01.913-1.38c.739-.737 1.69-1.106 2.85-1.106a6.97 6.97 0 012.46.427l-.559 3.622a5.614 5.614 0 00-.083.774c0 .401.17.601.508.601.445 0 .842-.27 1.192-.81.428-.655.642-1.433.642-2.333 0-1.236-.417-2.2-1.25-2.89-.923-.76-2.068-1.14-3.435-1.14a5.482 5.482 0 00-2.884.783 4.72 4.72 0 00-1.842 2.002c-.328.685-.492 1.446-.492 2.281 0 1.585.55 2.841 1.65 3.77.968.818 2.196 1.228 3.685 1.228.85 0 1.75-.163 2.7-.488l.242 1.34a9.785 9.785 0 01-3.075.497c-1.923 0-3.487-.56-4.693-1.68-1.284-1.184-1.926-2.751-1.926-4.701 0-1.84.609-3.352 1.826-4.536 1.256-1.213 2.848-1.82 4.776-1.82zm.583 4.284c-.316 0-.63.082-.941.248a2.448 2.448 0 00-.8.683 3.126 3.126 0 00-.684 1.968c0 .406.1.727.3.962.2.235.472.352.817.352.5 0 .914-.215 1.242-.644.172-.22.308-.647.408-1.28l.35-2.168a2.632 2.632 0 00-.692-.121M0 1.527l10.258 8.833a7.502 7.502 0 00-2.13 5.85H0V1.528zm20.842 0V10.2a7.5 7.5 0 00-5.21-2.096 7.495 7.495 0 00-3.325.772l8.535-7.349zM19.068 0L10.42 7.445 1.774 0h17.294z" fill="#E00"/></svg>