<svg width="30" height="30" fill="none" xmlns="http://www.w3.org/2000/svg"><path clip-rule="evenodd" d="M3.404 13.434a991.132 991.132 0 0114.475-6.287c6.889-2.89 8.321-3.397 9.25-3.397.193 0 .658.04.967.273.233.196.31.469.349.664.038.195.077.625.038.976-.387 3.944-1.973 13.589-2.825 18.001-.348 1.874-1.045 2.5-1.703 2.577-1.432.117-2.554-.976-3.948-1.874-2.167-1.445-3.405-2.343-5.534-3.748-2.439-1.64-.852-2.539.542-3.983.348-.39 6.734-6.209 6.85-6.756 0-.078.039-.312-.116-.43-.155-.116-.348-.077-.503-.038-.232.039-3.716 2.382-10.489 6.99-1.006.702-1.896 1.015-2.709 1.015-.89 0-2.593-.508-3.87-.938-1.549-.507-2.787-.78-2.67-1.64.115-.468.734-.937 1.896-1.405z" stroke="#E00" stroke-width="1.5"/></svg>