<svg width="23" height="22" fill="none" xmlns="http://www.w3.org/2000/svg"><g clip-path="url(#clip0_16001_947)"><path d="M11.503 0h-.006C5.432 0 .5 4.934.5 11c0 2.406.776 4.636 2.094 6.447l-1.37 4.087 4.227-1.352A10.905 10.905 0 0011.503 22C17.568 22 22.5 17.065 22.5 11S17.568 0 11.503 0z" fill="#90EA70"/><path d="M17.904 15.533c-.266.75-1.319 1.371-2.159 1.553-.575.122-1.325.22-3.853-.828-3.232-1.34-5.314-4.624-5.476-4.837-.156-.213-1.307-1.74-1.307-3.318 0-1.579.802-2.347 1.125-2.677.266-.271.704-.395 1.125-.395.136 0 .258.007.368.013.323.013.486.033.699.543.265.639.912 2.218.989 2.38.078.162.156.382.046.595-.103.22-.194.318-.356.505-.162.187-.316.33-.478.53-.149.175-.317.362-.13.685.187.316.834 1.371 1.785 2.218 1.228 1.093 2.223 1.443 2.58 1.591.265.11.581.084.775-.122.246-.266.55-.706.86-1.139.22-.31.497-.35.789-.24.297.104 1.868.88 2.191 1.042.324.162.537.239.615.375.077.136.077.776-.188 1.526z" fill="#FAFAFA"/></g><defs><clipPath id="clip0_16001_947"><path fill="#fff" transform="translate(.5)" d="M0 0h22v22H0z"/></clipPath></defs></svg>