<svg width="30" height="30" fill="none" xmlns="http://www.w3.org/2000/svg"><path d="M12.801 7.564l-1.507-1.506C9.777 4.543 10.317 2 12.462 2c2.89 0 5.505 1.17 7.398 3.06a10.412 10.412 0 013.064 7.39c0 .531-.04 1.052-.116 1.562-.187 1.25.072 2.576.978 3.458l3.242 3.158a3.213 3.213 0 01.03 4.575L25.2 27.058a3.222 3.222 0 01-4.552 0l-3.314-3.31c-.873-.872-2.165-1.125-3.388-.951-.485.068-.98.104-1.484.104-2.889 0-5.504-1.17-7.398-3.061A10.412 10.412 0 012 12.45c0-2.143 2.546-2.682 4.063-1.167L7.57 12.79a3.222 3.222 0 004.553 0l.678-.678a3.213 3.213 0 000-4.547z" stroke="#fff" stroke-width="2.3" stroke-linecap="round"/></svg>