<svg width="18" height="17" fill="none" xmlns="http://www.w3.org/2000/svg"><path d="M11.544 2.372l1.422.746c1.53.803 2.295 1.204 2.72 1.926.425.721.425 1.619.425 3.414v.084c0 1.795 0 2.693-.425 3.414-.425.722-1.19 1.123-2.72 1.926l-1.422.746c-1.248.655-1.873.983-2.544.983-.672 0-1.296-.328-2.544-.983l-1.423-.746c-1.53-.803-2.295-1.204-2.72-1.926-.424-.721-.424-1.619-.424-3.414v-.084c0-1.795 0-2.693.424-3.414.425-.722 1.19-1.123 2.72-1.926l1.423-.746C7.704 1.716 8.328 1.389 9 1.389c.671 0 1.296.327 2.544.983z" stroke="#60B1E9" stroke-width="2" stroke-linecap="round"/><path d="M15.4 5.3l-2.845 1.422M9 8.5L2.6 5.3M9 8.5v6.756M9 8.5l3.2-1.6.355-.178m0 0v2.49m0-2.49L5.8 3.167" stroke="#60B1E9" stroke-width="2" stroke-linecap="round"/></svg>