<svg width="21" height="21" fill="none" xmlns="http://www.w3.org/2000/svg"><path d="M7.04 15.376l6.56-6.36c.398-.386.597-.58.7-.789a1.331 1.331 0 000-1.187c-.103-.21-.302-.403-.7-.789-.399-.386-.598-.58-.814-.68a1.452 1.452 0 00-1.225 0c-.216.1-.415.294-.814.68l-6.512 6.314c-.977.946-1.465 1.42-1.636 1.97a2.214 2.214 0 000 1.312c.17.55.66 1.024 1.636 1.971.977.947 1.465 1.42 2.033 1.586.441.128.912.128 1.353 0 .568-.166 1.056-.64 2.033-1.586l6.607-6.406c.929-.9 1.393-1.35 1.672-1.818a3.998 3.998 0 000-4.106c-.28-.468-.743-.918-1.672-1.818-.928-.9-1.392-1.35-1.875-1.62a4.35 4.35 0 00-4.235 0c-.483.27-.947.72-1.876 1.62L2.951 8.832" stroke="#0E4B90" stroke-width="1.5" stroke-linecap="round"/></svg>