<svg width="30" height="30" fill="none" xmlns="http://www.w3.org/2000/svg"><path clip-rule="evenodd" d="M3.48 28.157l.684-4.8-1.258-2.524a13.39 13.39 0 011.862-14.74c4.978-5.741 13.725-6.16 19.225-.92l.384.366a13.305 13.305 0 014.093 10.515c-.56 8.413-8.691 14.182-16.787 11.908l-3.025-.85-4.799 1.376a.3.3 0 01-.379-.331z" stroke="#E00" stroke-width="1.5" stroke-linejoin="round"/><path fill-rule="evenodd" clip-rule="evenodd" d="M9.198 9.173l-.54 1.344c-.435 1.08-.578 2.281-.158 3.367a13.352 13.352 0 003.266 4.854c1.792 1.696 3.636 2.501 4.913 2.882 1.063.317 2.167.024 3.123-.562l1.23-.754c.834-.51.965-1.736.26-2.433l-.944-.959a1.35 1.35 0 00-1.865-.055c-.613.541-1.947 1.261-2.644.85-.415-.246-1.404-1.054-1.724-1.357-.372-.352-1.293-1.393-1.595-1.856-.385-.59.055-1.934.32-2.595l.168-.409a1.585 1.585 0 00-.362-1.734l-1.183-1.121c-.73-.69-1.88-.417-2.265.538z" fill="#E00"/></svg>