<svg width="233" height="31" fill="none" xmlns="http://www.w3.org/2000/svg"><path fill-rule="evenodd" clip-rule="evenodd" d="M0 30.55h232.884V28H0v2.55z" fill="#DD2C2C"/><path d="M11.657 21.428v0h2.028v0l-.032-11.267h0-1.734 0l-4.48 7.451-4.53-7.45v-.001h0-1.75 0v11.267H3.17v0-7.37l3.76 6.082h.95l3.76-6.178.017 7.466zm5.249-11.268h0v11.268h1.978l6.149-7.982v7.982h2.093v0V10.16v0h0-1.978 0l-6.148 8v-8h-2.094zm18.136 0h0v.001h-4.71 0v11.267h2.127v0-3.25h2.583c.992 0 1.856-.162 2.592-.484.736-.322 1.3-.786 1.693-1.392.393-.606.589-1.317.589-2.133 0-.826-.196-1.54-.589-2.14-.392-.602-.957-1.063-1.693-1.385-.736-.322-1.6-.483-2.592-.483zm-.098 6.245h-2.485v-4.473h2.485c.927 0 1.63.194 2.11.58.479.386.719.938.719 1.657 0 .719-.24 1.271-.72 1.657-.48.386-1.182.58-2.108.58v0h-.001zm22.174 5.023v0h2.028v0l-.032-11.267v0h0-1.734 0l-4.48 7.451-4.53-7.45v-.001h0-1.75 0v11.267h2.011v0-7.37l3.76 6.082h.95l3.76-6.178.017 7.466zm5.969 0h0l1.128-2.607h5.723l1.145 2.607h2.224v0L68.14 10.16h0-2.094 0l-5.151 11.266v.001h2.192zm1.848-4.25l2.142-4.923 2.157 4.923h-4.299zm20.295-7.016v-.001h0-2.127v4.651h-5.919v-4.651h0-2.126v11.267h2.126v0V16.6h5.92v4.828h2.126v0V10.16zM93.7 21.59h0v-.001c.937 0 1.796-.161 2.576-.483a5.221 5.221 0 001.97-1.4h0v-.001l-1.374-1.288v0h0c-.829.89-1.848 1.336-3.058 1.336-.784 0-1.487-.169-2.109-.507a3.684 3.684 0 01-1.456-1.408c-.348-.6-.522-1.282-.522-2.044 0-.761.174-1.443.522-2.043a3.7 3.7 0 011.456-1.408c.621-.338 1.325-.507 2.109-.507 1.21 0 2.23.44 3.058 1.32h0v0l1.374-1.272h0a5.232 5.232 0 00-1.962-1.401c-.774-.322-1.63-.483-2.568-.483-1.156 0-2.2.25-3.132.748a5.63 5.63 0 00-2.2 2.069c-.534.88-.801 1.872-.801 2.977 0 1.106.264 2.098.793 2.978.529.88 1.26 1.57 2.192 2.069.932.499 1.976.748 3.132.748zm7.016-.162h.001v0l1.128-2.607h5.723l1.144 2.607v0h2.225v0l-5.168-11.267v0h-2.094l-5.15 11.266v.001h2.191zm1.849-4.25l2.141-4.923 2.158 4.923h-4.299zm14.83-7.018v.001h-4.71 0v11.267h2.126v0-3.25h2.584c.992 0 1.856-.162 2.592-.484.736-.322 1.3-.786 1.692-1.392.394-.606.59-1.317.59-2.133 0-.826-.196-1.54-.59-2.14-.392-.602-.956-1.063-1.692-1.385-.736-.322-1.6-.483-2.592-.483zm-.099 6.245h-2.485v-4.473h2.485c.927 0 1.63.194 2.11.58.479.386.719.938.719 1.657 0 .719-.24 1.271-.719 1.657-.48.386-1.182.58-2.109.58v0h-.001zm17.842 3.252l-.001-.001v0h-1.65v-9.495h-8.391v0l-.13 3.573c-.066 1.889-.243 3.34-.532 4.354-.144.507-.342.89-.594 1.152-.252.262-.558.4-.918.417h-.491v0l-.016 4.169v0h1.98v0-2.398h8.78v2.398h1.964v0-4.168h0v-.001h-.001zm-8.307-5.73v0l.082-1.995h4.48v7.725h-5.804c.403-.419.697-1.114.883-2.084.185-.971.305-2.186.359-3.645zm20.476-3.765v-.001h-2.128v4.651h-5.918v-4.651h0-2.127 0v11.267h2.127v0V16.6h5.918v4.828h2.128v0V10.16zm3.219 11.266v0h4.923c1.461 0 2.595-.33 3.402-.99.807-.66 1.211-1.612 1.211-2.857 0-1.191-.369-2.09-1.105-2.696-.736-.607-1.791-.91-3.165-.91h-3.171v-3.814h-2.095v11.267zm4.825-1.61v0h-2.731V15.57h2.731c.862 0 1.507.17 1.938.51.43.341.645.852.645 1.533 0 .719-.223 1.266-.67 1.642-.447.375-1.085.563-1.913.563zm6.362-9.657h-.001v11.267h2.094v0V10.16v0h-2.093zm6.639 0v0h-2.455.001l3.875 5.489-4.137 5.777v.001h2.454v0l2.96-4.103 2.976 4.103v0h2.52-.001l-4.153-5.859 3.842-5.407.001-.001h-2.487 0v0l-2.698 3.766-2.698-3.766zm16.645 10.679c.938.5 1.99.75 3.157.75s2.218-.25 3.156-.75a5.609 5.609 0 002.208-2.068c.534-.88.801-1.872.801-2.977 0-1.106-.267-2.098-.801-2.978a5.609 5.609 0 00-2.208-2.069c-.938-.498-1.989-.748-3.156-.748s-2.219.25-3.157.748a5.594 5.594 0 00-2.207 2.077c-.534.885-.802 1.875-.802 2.97 0 1.094.268 2.084.802 2.97a5.595 5.595 0 002.207 2.076zm5.217-1.594c-.61.338-1.297.507-2.06.507-.763 0-1.45-.169-2.06-.507a3.694 3.694 0 01-1.439-1.416 4.006 4.006 0 01-.524-2.035c0-.751.175-1.43.524-2.036a3.695 3.695 0 011.439-1.416c.61-.338 1.297-.507 2.06-.507.763 0 1.45.169 2.06.507.611.338 1.09.81 1.439 1.416.348.606.523 1.285.523 2.035 0 .752-.174 1.43-.523 2.036a3.694 3.694 0 01-1.439 1.416zm8.554 2.182v0-4.748h2.125l3.352 4.748h2.406-.001l-4.055-5.81 3.908-5.456.001-.001h-2.259l-3.286 4.716h-2.191V10.16v0h-2.094v11.267h2.094zm11.446-.588c.938.5 1.991.75 3.157.75 1.167 0 2.219-.25 3.156-.75a5.609 5.609 0 002.208-2.068c.535-.88.801-1.872.801-2.977 0-1.106-.266-2.098-.801-2.978a5.609 5.609 0 00-2.208-2.069c-.937-.498-1.989-.748-3.156-.748-1.166 0-2.219.25-3.157.748a5.604 5.604 0 00-2.208 2.077c-.534.885-.801 1.875-.801 2.97 0 1.094.267 2.084.801 2.97a5.604 5.604 0 002.208 2.076zm5.217-1.594c-.61.338-1.297.507-2.06.507-.763 0-1.45-.169-2.06-.507a3.694 3.694 0 01-1.439-1.416 4.005 4.005 0 01-.523-2.035c0-.751.174-1.43.523-2.036a3.701 3.701 0 011.439-1.416c.61-.338 1.297-.507 2.06-.507.763 0 1.45.169 2.06.507.61.338 1.09.81 1.439 1.416.349.606.523 1.285.523 2.035 0 .752-.174 1.43-.523 2.036a3.701 3.701 0 01-1.439 1.416zm16.633-9.084v-.001h-2.128v4.651h-5.918v-4.651h-2.127 0v11.267h2.127v0V16.6h5.918v4.828h2.128v0V10.16z" fill="#DD2C2C" stroke="#DD2C2C" stroke-width=".19"/><path fill-rule="evenodd" clip-rule="evenodd" d="M130 2.551h102.701V0H130v2.551z" fill="#2060A1"/></svg>