<svg width="233" height="76" fill="none" xmlns="http://www.w3.org/2000/svg"><g clip-path="url(#clip0_26025_1315)"><path fill-rule="evenodd" clip-rule="evenodd" d="M73.513 0h38.431l16.458 16.264v4.532l.834.952v-4.691l22.434 22.07-28.537.074-15.78-16.305-8.765 1.55L76.077 2.51l-5.748 5.704-5.086.004L73.513 0zm27.309 6.534h7.9l8.008 7.775h-7.9l-8.008-7.775zm-11.495 0h7.9l8.009 7.775h-7.9l-8.009-7.775zM75.945 5.323l2.567 2.506-1.765 1.752-1.49-1.368-2.225.001 2.913-2.891z" fill="#2060A1"/><path fill-rule="evenodd" clip-rule="evenodd" d="M0 75.298h232.884v-2.55H0v2.55zm40.658-60.965l2.032 1.984L15.5 43.302v5.232l-9.3.004 34.458-34.205zm64.677 12.703l-1.277 1.248 17.093 16.962v3.29l5.844.002-21.66-21.502z" fill="#DD2C2C"/><path fill-rule="evenodd" clip-rule="evenodd" d="M38.733 10.121h35.549L87.021 22.66h20.098l-.002.003 26.076 25.878-4.029.003-24.039-23.859L81.642 48.54H55.868l11.1-10.852-26.202-25.583-36.71 36.43-4.024.003L38.733 10.12zm55.863 18.61h-11.39l-11.547 11.21h11.39l11.547-11.21zM51.134 14.31h7.9l8.008 7.774h-7.9l-8.008-7.774zm11.495 0h7.9l8.007 7.774h-7.899l-8.008-7.774z" fill="#2060A1"/><path fill-rule="evenodd" clip-rule="evenodd" d="M130.183 48.54h102.701v-2.55H130.183v2.55z" fill="#2060A1"/><path fill-rule="evenodd" clip-rule="evenodd" d="M127.894 40.673h23.854v2.157h-21.814l-2.04-2.157zM37.74 27.886h5.244v5.16H37.74v-5.16zm6.645 6.57h5.244v5.16h-5.244v-5.16zm0-6.57h5.244v5.16h-5.244v-5.16zm-6.645 6.57h5.244v5.16H37.74v-5.16z" fill="#DD2C2C"/><path fill-rule="evenodd" clip-rule="evenodd" d="M121.489 21.067h6.913V5.817h-6.913v15.25zm12.422-11.555l-4.675-3.695v21.878h4.675V9.512z" fill="#2060A1"/><path fill-rule="evenodd" clip-rule="evenodd" d="M129.306 5.019h-8.918V3.276h9.449l5.668 4.463.013 2.053-6.212-4.773zM90.174 6.86h1.767l7.344 7.122h-1.768L90.174 6.86z" fill="#DD2C2C"/><path d="M11.657 65.502v0h2.028v0l-.032-11.266h0-1.734 0l-4.48 7.45-4.53-7.45h0-1.75 0v11.266H3.17v0-7.37l3.76 6.083h.95l3.76-6.179.017 7.466zm5.249-11.267h0v11.267h1.978l6.149-7.981v7.981h2.093v0-11.266 0h0-1.978 0L19 62.232v-7.997 0h-2.094zm18.136 0h0v0h-4.71 0v11.267h2.127v0-3.25h2.583c.992 0 1.856-.162 2.592-.483.736-.322 1.3-.786 1.693-1.393.393-.606.589-1.317.589-2.133 0-.826-.196-1.54-.589-2.14-.392-.602-.957-1.063-1.693-1.385-.736-.322-1.6-.483-2.592-.483zm-.098 6.245h-2.485v-4.473h2.485c.927 0 1.63.193 2.11.579.479.386.719.939.719 1.657 0 .719-.24 1.271-.72 1.658-.48.386-1.182.579-2.108.579v0h-.001zm22.174 5.022v0h2.028v0l-.032-11.266v0h0-1.734 0l-4.48 7.45-4.53-7.45h0-1.75 0v11.266h2.011v0-7.37l3.76 6.083h.95l3.76-6.179.017 7.466zm5.969 0h0l1.128-2.607h5.723l1.145 2.607h2.224v0L68.14 54.236h0-2.094 0l-5.151 11.266h2.192zm1.848-4.25l2.142-4.923 2.157 4.923h-4.299zm20.295-7.016v0h0-2.127v4.65h-5.919v-4.65 0h0-2.126v11.266h2.126v0-4.828h5.92v4.828h2.126v0-11.266zm8.47 11.427h0v0c.937 0 1.796-.16 2.576-.483a5.22 5.22 0 001.97-1.4h0l-1.374-1.288v0h0c-.829.89-1.848 1.335-3.058 1.335-.784 0-1.487-.169-2.109-.507a3.684 3.684 0 01-1.456-1.408c-.348-.6-.522-1.282-.522-2.043 0-.762.174-1.443.522-2.044a3.7 3.7 0 011.456-1.408c.621-.338 1.325-.507 2.109-.507 1.21 0 2.23.44 3.058 1.32h0v0l1.374-1.272h0a5.232 5.232 0 00-1.962-1.401c-.774-.322-1.63-.483-2.568-.483-1.156 0-2.2.25-3.132.749a5.63 5.63 0 00-2.2 2.068c-.534.88-.801 1.873-.801 2.978 0 1.105.264 2.098.793 2.977.529.88 1.26 1.57 2.192 2.069.932.499 1.976.748 3.132.748zm7.016-.161h.001v0l1.128-2.607h5.723l1.144 2.607v0h2.225v0l-5.168-11.266v0h-2.094l-5.15 11.266v0h2.191zm1.849-4.25l2.141-4.923 2.158 4.923h-4.299zm14.83-7.017v0h-4.71 0v11.267h2.126v0-3.25h2.584c.992 0 1.856-.162 2.592-.483.736-.322 1.3-.786 1.692-1.393.394-.606.59-1.317.59-2.133 0-.826-.196-1.54-.59-2.14-.392-.602-.956-1.063-1.692-1.385-.736-.322-1.6-.483-2.592-.483zm-.099 6.245h-2.485v-4.473h2.485c.927 0 1.63.193 2.11.579.479.386.719.939.719 1.657 0 .719-.24 1.271-.719 1.658-.48.386-1.182.579-2.109.579v0h-.001zm17.842 3.25h-.001v0h-1.65v-9.494 0h-8.391v0l-.13 3.573c-.066 1.888-.243 3.34-.532 4.353-.144.507-.342.891-.594 1.153-.252.261-.558.4-.918.416h-.491v0l-.016 4.169v0h1.98v0-2.398h8.78V67.9h1.964v0-4.168h0l-.001-.001zm-8.307-5.728v0l.082-1.995h4.48v7.724h-5.804c.403-.419.697-1.113.883-2.084.185-.97.305-2.186.359-3.645zm20.476-3.766v0h-2.128v4.65h-5.918v-4.65 0h0-2.127 0v11.266h2.127v0-4.828h5.918v4.828h2.128v0-11.266zm3.219 11.266v0h4.923c1.461 0 2.595-.33 3.402-.99.807-.66 1.211-1.612 1.211-2.857 0-1.19-.369-2.09-1.105-2.696-.736-.606-1.791-.91-3.165-.91h-3.171v-3.813 0h-2.095v11.266zm4.825-1.61v0h-2.731v-4.248h2.731c.862 0 1.507.17 1.938.511.43.34.645.851.645 1.533 0 .718-.223 1.265-.67 1.64-.447.376-1.085.564-1.913.564zm6.362-9.657h-.001v11.267h2.094v0-11.266 0h-2.093zm6.639 0v0h-2.455l.001.001 3.875 5.488-4.137 5.778h2.454v0l2.96-4.103 2.976 4.103v0h2.52-.001l-4.153-5.858 3.842-5.408h.001-2.487 0v0L171.05 58l-2.698-3.766zm16.645 10.68c.938.499 1.99.748 3.157.748s2.218-.249 3.156-.748a5.609 5.609 0 002.208-2.069c.534-.88.801-1.872.801-2.977 0-1.105-.267-2.098-.801-2.978a5.609 5.609 0 00-2.208-2.068c-.938-.5-1.989-.749-3.156-.749s-2.219.25-3.157.749a5.594 5.594 0 00-2.207 2.076c-.534.885-.802 1.875-.802 2.97 0 1.094.268 2.084.802 2.97a5.595 5.595 0 002.207 2.076zm5.217-1.594c-.61.337-1.297.507-2.06.507-.763 0-1.45-.17-2.06-.507a3.694 3.694 0 01-1.439-1.417 4.006 4.006 0 01-.524-2.035c0-.751.175-1.43.524-2.036a3.693 3.693 0 011.439-1.416c.61-.338 1.297-.507 2.06-.507.763 0 1.45.17 2.06.507.611.338 1.09.81 1.439 1.416.348.606.523 1.285.523 2.036 0 .75-.174 1.43-.523 2.035a3.694 3.694 0 01-1.439 1.417zm8.554 2.181v0-4.747h2.125l3.352 4.747h2.406-.001l-4.055-5.81 3.908-5.456h.001-2.259l-3.286 4.715h-2.191v-4.715 0h-2.094v11.266h2.094zm11.446-.587c.938.499 1.991.748 3.157.748 1.167 0 2.219-.249 3.156-.748a5.609 5.609 0 002.208-2.069c.535-.88.801-1.872.801-2.977 0-1.105-.266-2.098-.801-2.978a5.609 5.609 0 00-2.208-2.068c-.937-.5-1.989-.749-3.156-.749-1.166 0-2.219.25-3.157.749a5.604 5.604 0 00-2.208 2.076c-.534.885-.801 1.875-.801 2.97 0 1.094.267 2.084.801 2.97a5.604 5.604 0 002.208 2.076zm5.217-1.594c-.61.337-1.297.507-2.06.507-.763 0-1.45-.17-2.06-.507a3.694 3.694 0 01-1.439-1.417 4.005 4.005 0 01-.523-2.035c0-.751.174-1.43.523-2.036a3.7 3.7 0 011.439-1.416c.61-.338 1.297-.507 2.06-.507.763 0 1.45.17 2.06.507a3.7 3.7 0 011.439 1.416c.349.606.523 1.285.523 2.036 0 .75-.174 1.43-.523 2.035a3.701 3.701 0 01-1.439 1.417zm16.633-9.085v0h-2.128v4.65h-5.918v-4.65 0h-2.127 0v11.266h2.127v0-4.828h5.918v4.828h2.128v0-11.266z" fill="#DD2C2C" stroke="#DD2C2C" stroke-width=".19"/><path fill-rule="evenodd" clip-rule="evenodd" d="M101.767 6.86h1.766l7.344 7.122h-1.767l-7.343-7.121zm-49.784 7.732h1.767l7.344 7.12h-1.768l-7.343-7.12zm11.593 0h1.767l7.344 7.12h-1.768l-7.343-7.12zm22.281 14.716h-2.525L72.835 39.486h2.527l10.495-10.178z" fill="#DD2C2C"/></g><defs><clipPath id="clip0_26025_1315"><path fill="#fff" d="M0 0h233v75.301H0z"/></clipPath></defs></svg>