<svg width="85" height="85" fill="none" xmlns="http://www.w3.org/2000/svg"><path d="M77 12.6c-18.889 0-26.52 15.36-34 30.4S27.889 73.4 9 73.4m26.444 0H43m11.333 0h7.556m0 0c0 2.016.796 3.949 2.213 5.374A7.533 7.533 0 0069.444 81c2.004 0 3.926-.8 5.343-2.226A7.623 7.623 0 0077 73.4a7.623 7.623 0 00-2.213-5.374 7.533 7.533 0 00-5.343-2.226 7.53 7.53 0 00-5.342 2.226 7.623 7.623 0 00-2.213 5.374zM43 12.6h7.556m-26.445 0h7.556m-7.556 0a7.623 7.623 0 01-2.213 5.374 7.533 7.533 0 01-5.342 2.226c-2.004 0-3.926-.8-5.343-2.226A7.623 7.623 0 019 12.6c0-2.016.796-3.949 2.213-5.374A7.533 7.533 0 0116.556 5c2.003 0 3.925.8 5.342 2.226a7.623 7.623 0 012.213 5.374z" stroke="#0E4B90" stroke-width="4.5" stroke-linecap="round" stroke-linejoin="round"/></svg>