<svg width="85" height="85" fill="none" xmlns="http://www.w3.org/2000/svg"><path d="M16.8 73.655C21.61 79 29.352 79 44.837 79c15.486 0 23.229 0 28.04-5.345 4.81-5.346 4.81-13.949 4.81-31.155 0-17.206 0-25.81-4.81-31.155C68.067 6 60.324 6 44.838 6 29.353 6 21.61 6 16.8 11.345c-4.81 5.346-4.81 13.949-4.81 31.155 0 17.206 0 25.81 4.81 31.155z" stroke="#E00" stroke-width="4.5"/><path d="M62.69 58.5l8.107-40.539C72.035 11.773 67.302 6 60.992 6H30.126a10 10 0 00-9.788 7.955l-9.821 47C9.219 67.166 13.96 73 20.305 73h31.011a10 10 0 009.721-7.654L62.69 58.5zm0 0l15-10" stroke="#E00" stroke-width="4"/></svg>