<svg width="85" height="85" fill="none" xmlns="http://www.w3.org/2000/svg"><path d="M50.383 61.625v-47.29a1.97 1.97 0 00-1.97-1.971H5.062a1.97 1.97 0 00-1.971 1.97v47.291a1.97 1.97 0 001.97 1.97h5.912m39.409-1.97a1.97 1.97 0 01-1.97 1.97H26.736m23.646-1.97V26.157a1.97 1.97 0 011.97-1.97H65.33a1.97 1.97 0 011.394.577l14.609 14.609c.37.37.577.87.577 1.393v20.86a1.97 1.97 0 01-1.97 1.97h-5.912m-23.645-1.97a1.97 1.97 0 001.97 1.97h5.911m-47.29 0a7.882 7.882 0 1015.763 0m-15.763 0a7.882 7.882 0 1115.763 0m31.527 0a7.882 7.882 0 1015.764 0m-15.764 0a7.882 7.882 0 1115.764 0" stroke="#0E4B90" stroke-width="4.5"/></svg>