<svg width="85" height="85" fill="none" xmlns="http://www.w3.org/2000/svg"><path fill-rule="evenodd" clip-rule="evenodd" d="M63.514 16.823l-.21-.163c-.404-3.066-1.871-6.26-4.163-8.953C55.42 3.332 49.353 0 41.233 0 33.23 0 27.59 3.65 24.263 8.174a19.135 19.135 0 00-3.26 7.016 16.33 16.33 0 00-.261 1.437l-.252.194c-2.623 2.032-4.548 4.496-4.09 7.322.438 2.73 2.907 4.391 5.203 5.406a22.32 22.32 0 001.883.728 18.667 18.667 0 1037.03 0c.67-.225 1.298-.468 1.883-.728 2.296-1.015 4.762-2.676 5.203-5.406.457-2.826-1.468-5.29-4.09-7.322m-37.973 3.411c-.303-.872-.383-2.275.012-4.008.387-1.692 1.19-3.547 2.45-5.264v6.54a2.333 2.333 0 104.666 0V6.79c1.92-1.092 4.242-1.855 7-2.065v8.108a2.333 2.333 0 104.667 0V4.87a18.9 18.9 0 017 2.333V17.5a2.333 2.333 0 104.667 0v-6.258c2.578 3.304 3.182 6.87 2.457 9.009a2.333 2.333 0 004.104 2.112c.46.641.444.982.434 1.036-.03.186-.387.956-2.485 1.885-.91.401-1.993.763-3.208 1.083l-.056.014c-1.319.34-2.786.63-4.357.868-2.912.42-5.847.66-8.79.723-2.022.051-4.045.03-6.066-.065a70.001 70.001 0 01-6.944-.663c-1.46-.212-2.906-.5-4.335-.863l-.056-.014a21.003 21.003 0 01-3.209-1.083c-2.097-.929-2.454-1.699-2.485-1.885-.009-.054-.025-.395.434-1.036a2.333 2.333 0 004.1-2.128m2.513 11.22c.776.152 1.576.29 2.399.414 2.492.373 5.175.611 7.905.723 2.433.1 4.87.1 7.303 0 2.716-.112 5.39-.35 7.87-.723.831-.122 1.638-.26 2.42-.413a14 14 0 11-27.897 0z" fill="#E00"/><path fill-rule="evenodd" clip-rule="evenodd" d="M53.667 52.477c1.535.268 3.098.58 4.666.938C71.033 56.315 84 62.113 84 70v14H0V70c0-7.887 12.966-13.685 25.667-16.585a93.281 93.281 0 014.666-.938V63h23.334V52.477zm-32.667 7a81.116 81.116 0 014.667-1.27v9.46h32.666V58.21c2.364.564 4.7 1.24 7 2.025v19.098H70V62.06c.678.301 1.33.612 1.955.93 2.653 1.35 4.62 2.74 5.866 4.07 1.225 1.307 1.512 2.27 1.512 2.94v9.333H4.667V70c0-.67.287-1.633 1.512-2.94 1.246-1.33 3.213-2.72 5.866-4.07a46.584 46.584 0 014.288-1.901v18.244H21V59.477z" fill="#E00"/></svg>