<svg width="85" height="85" fill="none" xmlns="http://www.w3.org/2000/svg"><path d="M64.285 31.612l-1.135-2.004c-.858-1.518-1.287-2.274-2.02-2.575-.73-.304-1.556-.066-3.206.414l-2.808.803a4.524 4.524 0 01-3.124-.398l-.776-.452a4.68 4.68 0 01-1.813-2.266l-.769-2.332c-.503-1.544-.756-2.317-1.357-2.761-.6-.445-1.4-.44-2.991-.44H41.72c-1.6 0-2.395 0-2.995.44-.601.444-.855 1.217-1.358 2.761l-.768 2.332a4.68 4.68 0 01-1.813 2.262l-.777.456a4.5 4.5 0 01-3.123.398l-2.808-.803c-1.65-.48-2.477-.718-3.206-.413-.733.3-1.162 1.056-2.02 2.574l-1.135 2.004c-.804 1.42-1.21 2.133-1.131 2.886.078.757.62 1.365 1.696 2.586l2.371 2.699c.582.745.991 2.047.991 3.217s-.41 2.469-.99 3.218l-2.372 2.698c-1.076 1.217-1.618 1.826-1.696 2.582-.078.757.327 1.47 1.13 2.886l1.136 2.009c.858 1.513 1.287 2.273 2.02 2.574.73.304 1.556.066 3.206-.414l2.808-.803a4.524 4.524 0 013.123.398l.776.452a4.684 4.684 0 011.814 2.266l.768 2.336c.503 1.544.757 2.313 1.358 2.757.6.445 1.4.441 2.995.441h2.566c1.599 0 2.395 0 2.995-.44.6-.445.854-1.213 1.357-2.758l.769-2.336a4.618 4.618 0 011.813-2.262l.776-.456a4.5 4.5 0 013.124-.398l2.808.803c1.65.48 2.477.718 3.206.414.733-.3 1.162-1.061 2.02-2.574l1.135-2.005c.803-1.42 1.209-2.133 1.131-2.886-.078-.76-.62-1.365-1.697-2.586l-2.37-2.698c-.582-.745-.991-2.048-.991-3.218s.41-2.472.99-3.217l2.372-2.7c1.076-1.216 1.618-1.828 1.692-2.581.074-.753-.324-1.47-1.127-2.886" stroke="#0E4B90" stroke-width="4.5" stroke-linecap="round" stroke-linejoin="round"/><path d="M42.999 49.825a6.825 6.825 0 100-13.65 6.825 6.825 0 000 13.65zM70.3 4v11.15A38.883 38.883 0 0043 4C21.46 4 4 21.46 4 43a39 39 0 003.245 15.6M15.7 82V70.85A38.883 38.883 0 0043 82c21.54 0 39-17.46 39-39a39.001 39.001 0 00-3.245-15.6" stroke="#0E4B90" stroke-width="4.5" stroke-linecap="round" stroke-linejoin="round"/></svg>