<svg width="74" height="53" fill="none" xmlns="http://www.w3.org/2000/svg"><g style="mix-blend-mode:darken"><path fill="#fff" d="M0 0h74v53H0z"/><path d="M42.774 14.41L67 38.38h-1.997L41.97 15.58l-22.946 22.8H7l24.228-23.968 11.546-.001z" fill="#AFB0B1"/><path fill-rule="evenodd" clip-rule="evenodd" d="M35.422 34.334l2.525 4.05h-2.341l-2.309-3.728H32.01v3.73h-2v-9.182h3.947c1.587.012 3.206.863 3.206 2.636 0 1-.621 1.947-1.74 2.494zm-1.753-1.174c.868-.015 1.383-.445 1.383-1.26 0-.814-.515-1.155-1.383-1.17h-1.666v2.43h1.666z" fill="#AFB0B1"/><path d="M46.937 36.437c0 1.38.318 2.153 1.818 2.153.263 0 1.291-.086 1.51-.19v-1.115c-.066.004-.13.01-.196.015-.14.01-.279.022-.42.022-.665 0-.796-.225-.796-1.062v-2.949h1.448v-1.266h-1.448v-1.938l-1.916.685v1.253h-1.295v1.266h1.295v3.126z" fill="#AFB0B1"/><path fill-rule="evenodd" clip-rule="evenodd" d="M38.375 35.223c0 1.998 1.257 3.367 3.354 3.367 2.1 0 3.352-1.369 3.352-3.367 0-2-1.252-3.368-3.352-3.368-2.097 0-3.354 1.368-3.354 3.368zm4.726 0c0 1.012-.193 2.099-1.372 2.099-1.175 0-1.369-1.087-1.369-2.099 0-1.01.194-2.101 1.37-2.101 1.178 0 1.371 1.09 1.371 2.101zm11.417 3.367c-2.094 0-3.345-1.369-3.345-3.367 0-2 1.251-3.368 3.345-3.368 2.105 0 3.353 1.368 3.353 3.368 0 1.998-1.248 3.367-3.353 3.367zm0-1.268c1.185 0 1.372-1.087 1.372-2.099 0-1.01-.187-2.101-1.372-2.101-1.17 0-1.364 1.09-1.364 2.101 0 1.012.194 2.099 1.364 2.099z" fill="#AFB0B1"/></g></svg>