<?xml version="1.0" encoding="utf-8"?><svg xmlns="http://www.w3.org/2000/svg" xmlns:xlink="http://www.w3.org/1999/xlink"><symbol viewBox="0 0 21 22" id="badge" xmlns="http://www.w3.org/2000/svg"><path d="M9.586.6l9.9 1.414 1.414 9.9-9.192 9.192a1.001 1.001 0 01-1.415 0l-9.9-9.9a1 1 0 010-1.413L9.586.6zm2.829 8.486a1.999 1.999 0 102.827-2.827 1.999 1.999 0 00-2.827 2.827z"/></symbol><symbol viewBox="0 0 42 79" id="caret-left" xmlns="http://www.w3.org/2000/svg"><path d="M.253 38.903H0l.127.157-.127.156h.253L31.77 78.119l9.893-11.537L19.278 39.06l22.386-27.523L31.771 0 .253 38.903z"/></symbol><symbol viewBox="0 0 30 56" id="caret-left--small" xmlns="http://www.w3.org/2000/svg"><path d="M.182 27.888H0L.091 28 0 28.112h.182L22.877 56 30 47.73 13.881 28 30 8.27 22.877 0 .182 27.888z"/></symbol><symbol viewBox="0 0 42 79" id="caret-right" xmlns="http://www.w3.org/2000/svg"><path d="M41.411 38.903h.253l-.127.157.127.156h-.253L9.893 78.119 0 66.582 22.386 39.06 0 11.537 9.893 0 41.41 38.903z"/></symbol><symbol viewBox="0 0 30 56" id="caret-right--small" xmlns="http://www.w3.org/2000/svg"><path d="M29.818 27.888H30l-.091.112.091.112h-.182L7.123 56 0 47.73 16.119 28 0 8.27 7.123 0l22.695 27.888z"/></symbol><symbol viewBox="0 0 24 24" id="close" xmlns="http://www.w3.org/2000/svg"><path d="M6.4 19L5 17.6l5.6-5.6L5 6.4 6.4 5l5.6 5.6L17.6 5 19 6.4 13.4 12l5.6 5.6-1.4 1.4-5.6-5.6z"/></symbol><symbol viewBox="0 0 12 14" id="home" xmlns="http://www.w3.org/2000/svg"><path d="M0 14V4.69L6 0l6 4.69V14H7.55V8.339h-3.1V14H0z"/></symbol><symbol viewBox="0 0 20 17" id="mail" xmlns="http://www.w3.org/2000/svg"><path d="M20 .5v16H0V8l2.5 1.5V14h15V6L10 11 0 4.5v-4h20z"/></symbol><symbol viewBox="0 0 20 20" id="phone" xmlns="http://www.w3.org/2000/svg"><path d="M0 3v6l11 11h6l3-3-6-6-2.5 2.5-5-5L9 6 3 0 0 3z"/></symbol><symbol viewBox="0 0 16 20" id="pin" xmlns="http://www.w3.org/2000/svg"><path d="M6.324 18.737c.54.45 1.1.862 1.676 1.263a24.013 24.013 0 001.676-1.263 25.19 25.19 0 002.536-2.43C14.028 14.295 16 11.377 16 8.103a8.193 8.193 0 00-.609-3.1 8.111 8.111 0 00-1.734-2.63A7.995 7.995 0 0011.062.617a7.912 7.912 0 00-6.123 0 7.994 7.994 0 00-2.596 1.756A8.11 8.11 0 00.61 5.003 8.194 8.194 0 000 8.102c0 3.274 1.972 6.19 3.788 8.204a25.19 25.19 0 002.536 2.43zM8 11.029a2.87 2.87 0 01-2.043-.857 2.946 2.946 0 01-.846-2.069c0-.776.304-1.52.846-2.069A2.87 2.87 0 018 5.177a2.87 2.87 0 012.043.857c.542.549.846 1.293.846 2.069s-.304 1.52-.846 2.07A2.87 2.87 0 018 11.028z"/></symbol><symbol viewBox="0 0 30 26" id="tg" xmlns="http://www.w3.org/2000/svg"><path d="M29.915 2.366l-4.528 22.065c-.342 1.556-1.232 1.944-2.497 1.211l-6.9-5.253-3.327 3.309c-.369.38-.677.698-1.387.698l.496-7.26L24.557 5.198c.556-.512-.121-.796-.864-.284L7.888 15.2l-6.804-2.202c-1.48-.477-1.507-1.53.308-2.263L28.006.138c1.232-.477 2.31.283 1.909 2.228z"/></symbol><symbol viewBox="0 0 24 24" id="up" xmlns="http://www.w3.org/2000/svg"><path d="M4 15l8-8 8 8-2 2-6-6-6 6z" fill-rule="evenodd"/></symbol><symbol viewBox="0 0 30 30" id="wa" xmlns="http://www.w3.org/2000/svg"><path d="M27.75 6.95C23.27-.002 14.096-2.062 7 2.25.074 6.565-2.155 15.965 2.325 22.897l.365.558-1.501 5.623 5.617-1.502.557.365c2.423 1.309 5.06 2.06 7.675 2.06 2.808 0 5.617-.751 8.04-2.253 6.924-4.507 8.982-13.714 4.673-20.84v.044zm-3.922 14.466c-.75 1.116-1.694 1.867-3.002 2.06-.75 0-1.693.365-5.424-1.116-3.172-1.502-5.81-3.95-7.674-6.76-1.115-1.31-1.694-3.005-1.866-4.7 0-1.503.558-2.812 1.501-3.756.365-.365.75-.558 1.115-.558h.943c.365 0 .75 0 .944.75.364.945 1.307 3.199 1.307 3.392.193.193.107 1.63-.75 2.446-.472.537-.558.558-.365.945a23.605 23.605 0 002.616 3.197c1.115.945 2.25 1.696 3.559 2.254.364.193.75.193.943-.193.193-.365 1.115-1.31 1.5-1.696.365-.365.558-.365.944-.193l3.001 1.502c.365.194.75.365.944.558.192.558.192 1.31-.193 1.868h-.043z"/></symbol><symbol viewBox="0 0 40 40" id="zoom" xmlns="http://www.w3.org/2000/svg"><path opacity=".8" d="M0 40V23.889h4.444v11.667h11.667V40H0zm23.889 0v-4.444h11.667V23.889H40V40H23.889zM0 16.111V0h16.111v4.444H4.444v11.667H0zm35.556 0V4.444H23.889V0H40v16.111h-4.444z"/></symbol></svg>