<?xml version="1.0" encoding="utf-8"?><svg xmlns="http://www.w3.org/2000/svg" xmlns:xlink="http://www.w3.org/1999/xlink"><symbol viewBox="0 0 42 79" id="caret-left" xmlns="http://www.w3.org/2000/svg"><path d="M.253 38.903H0l.127.157-.127.156h.253L31.77 78.119l9.893-11.537L19.278 39.06l22.386-27.523L31.771 0 .253 38.903z"/></symbol><symbol viewBox="0 0 42 79" id="caret-right" xmlns="http://www.w3.org/2000/svg"><path d="M41.411 38.903h.253l-.127.157.127.156h-.253L9.893 78.119 0 66.582 22.386 39.06 0 11.537 9.893 0 41.41 38.903z"/></symbol><symbol viewBox="0 0 24 24" id="close" xmlns="http://www.w3.org/2000/svg"><path d="M6.4 19L5 17.6l5.6-5.6L5 6.4 6.4 5l5.6 5.6L17.6 5 19 6.4 13.4 12l5.6 5.6-1.4 1.4-5.6-5.6z"/></symbol><symbol viewBox="0 0 12 14" id="home" xmlns="http://www.w3.org/2000/svg"><path d="M0 14V4.69L6 0l6 4.69V14H7.55V8.339h-3.1V14H0z"/></symbol><symbol viewBox="0 0 20 17" id="mail" xmlns="http://www.w3.org/2000/svg"><path d="M20 .5v16H0V8l2.5 1.5V14h15V6L10 11 0 4.5v-4h20z"/></symbol><symbol viewBox="0 0 20 20" id="phone" xmlns="http://www.w3.org/2000/svg"><path d="M0 3v6l11 11h6l3-3-6-6-2.5 2.5-5-5L9 6 3 0 0 3z"/></symbol><symbol viewBox="0 0 16 20" id="pin" xmlns="http://www.w3.org/2000/svg"><path d="M6.324 18.737c.54.45 1.1.862 1.676 1.263a24.013 24.013 0 001.676-1.263 25.19 25.19 0 002.536-2.43C14.028 14.295 16 11.377 16 8.103a8.193 8.193 0 00-.609-3.1 8.111 8.111 0 00-1.734-2.63A7.995 7.995 0 0011.062.617a7.912 7.912 0 00-6.123 0 7.994 7.994 0 00-2.596 1.756A8.11 8.11 0 00.61 5.003 8.194 8.194 0 000 8.102c0 3.274 1.972 6.19 3.788 8.204a25.19 25.19 0 002.536 2.43zM8 11.029a2.87 2.87 0 01-2.043-.857 2.946 2.946 0 01-.846-2.069c0-.776.304-1.52.846-2.069A2.87 2.87 0 018 5.177a2.87 2.87 0 012.043.857c.542.549.846 1.293.846 2.069s-.304 1.52-.846 2.07A2.87 2.87 0 018 11.028z"/></symbol><symbol viewBox="0 0 24 24" id="up" xmlns="http://www.w3.org/2000/svg"><path d="M4 15l8-8 8 8-2 2-6-6-6 6z" fill-rule="evenodd"/></symbol></svg>