<svg width="168" height="57" viewBox="0 0 168 57" fill="none" xmlns="http://www.w3.org/2000/svg">
<path d="M52.4082 38.389H15.3236L0 56.3686H37.0845L52.4082 38.389Z" fill="#3DAD2C"/>
<path d="M48.6299 0.208252L34.4258 16.7301L66.7523 56.3686H94.2509L48.6299 0.208252Z" fill="#3DAD2C"/>
<path d="M103.417 28.3232C103.417 31.1694 104.606 33.7379 106.426 35.5428C108.315 37.4171 110.834 38.5278 113.703 38.5278H168V56.5075H114.122C106.286 56.5075 99.1487 53.3836 93.9708 48.2466C88.793 43.1095 85.6443 36.0981 85.6443 28.2537C85.6443 12.6343 98.379 0 114.122 0H168V17.9796H113.703C108.035 18.0491 103.417 22.6308 103.417 28.3232Z" fill="#3DAD2C"/>
</svg>
