<svg width="40" height="36" viewBox="0 0 40 36" fill="none" xmlns="http://www.w3.org/2000/svg">
<path d="M20.0082 35.3205C23.6586 35.3205 27.2111 34.4467 30.3226 32.7889C31.9477 33.6464 33.7934 34.0792 35.8187 34.0792C36.4557 34.0792 37.0927 34.0384 37.7297 33.9486C38.3585 33.8587 38.8567 33.4014 38.9955 32.7807C39.1343 32.1519 38.8812 31.5231 38.334 31.1637C37.2969 30.4777 36.4884 29.5304 35.9412 28.3218C38.5627 25.2675 40 21.5027 40 17.6562C40 7.9216 31.0249 0 20 0C8.96692 0 0 7.9216 0 17.6562C0 27.3908 8.97509 35.3205 20.0082 35.3205ZM2.00898 17.6644C2.00898 9.03226 10.0857 2.00898 20.0082 2.00898C29.9306 2.00898 38.0073 9.03226 38.0073 17.6644C38.0073 21.2658 36.6354 24.6468 34.0465 27.4561C33.7934 27.7338 33.7117 28.1258 33.8424 28.4851C34.3814 29.9306 35.1817 31.1392 36.2352 32.0866C34.218 32.1601 32.3806 31.7191 30.8371 30.7962C30.6819 30.6982 30.5022 30.6574 30.3226 30.6574C30.1511 30.6574 29.9796 30.6982 29.8244 30.7881C26.8926 32.4541 23.4953 33.3361 19.9918 33.3361C10.0776 33.3197 2.00898 26.2964 2.00898 17.6644Z" fill="#101821"/>
<path d="M12.258 11.9151C11.1637 13.0094 10.5593 14.463 10.5593 16.0147C10.5593 17.5582 11.1637 19.0118 12.258 20.1062L18.7668 26.6231C19.0853 26.9416 19.5344 27.1294 19.9917 27.1294C20.4572 27.1294 20.8901 26.9498 21.2167 26.6231L27.7419 20.098C28.8362 19.0037 29.4405 17.55 29.4405 16.0065C29.4405 14.463 28.8443 13.0012 27.7419 11.9069C26.6475 10.8126 25.1939 10.2083 23.6504 10.2083C22.3029 10.2083 21.0207 10.6656 19.9917 11.5067C18.9628 10.6656 17.6888 10.2083 16.3413 10.2083C14.806 10.2246 13.3523 10.8289 12.258 11.9151ZM12.5683 16.0147C12.5683 15.002 12.9603 14.0466 13.679 13.3361C14.3976 12.6174 15.345 12.2254 16.3576 12.2254C17.3703 12.2254 18.3258 12.6174 19.0363 13.3361L19.2976 13.5974C19.4854 13.7852 19.7386 13.8914 20.0081 13.8914C20.2694 13.8914 20.5307 13.7852 20.7186 13.5974L20.9881 13.3279C21.7067 12.6092 22.6622 12.2172 23.6749 12.2172C24.6875 12.2172 25.6349 12.6092 26.3535 13.3279C27.0722 14.0466 27.4642 14.9939 27.4642 16.0065C27.4642 17.0192 27.064 17.9665 26.3535 18.6852L19.9999 25.0143L13.679 18.6933C12.9603 17.9829 12.5683 17.0274 12.5683 16.0147Z" fill="#101821"/>
</svg>
