<svg width="46" height="40" viewBox="0 0 46 40" fill="none" xmlns="http://www.w3.org/2000/svg">
<path d="M22.8206 1C25.3249 1 27.8082 2.85854 29.7229 6.33984C31.6178 9.78513 32.8206 14.6129 32.8206 20C32.8206 25.3871 31.6178 30.2149 29.7229 33.6602C27.8082 37.1415 25.3249 39 22.8206 39C20.3162 39 17.8329 37.1415 15.9182 33.6602C14.0234 30.2149 12.8206 25.3871 12.8206 20C12.8206 14.6129 14.0234 9.78513 15.9182 6.33984C17.8329 2.85854 20.3162 1 22.8206 1Z" stroke="#101821" stroke-width="2"/>
<path d="M6.36603 29.5001C5.11385 27.3313 5.48175 24.2514 7.53929 20.8526C9.57558 17.4889 13.1551 14.0334 17.8205 11.3398C22.4859 8.64629 27.2682 7.27406 31.1994 7.1924C35.1716 7.10995 38.0228 8.33127 39.275 10.5001C40.5272 12.6689 40.1593 15.7488 38.1017 19.1476C36.0654 22.5112 32.4859 25.9668 27.8205 28.6603C23.1551 31.3539 18.3728 32.7261 14.4416 32.8078C10.4694 32.8902 7.6182 31.6689 6.36603 29.5001Z" stroke="#101821" stroke-width="2"/>
<path d="M39.275 29.5002C38.0228 31.669 35.1716 32.8903 31.1994 32.8078C27.2682 32.7262 22.4858 31.354 17.8205 28.6604C13.1551 25.9669 9.57555 22.5113 7.53927 19.1477C5.48173 15.7488 5.11383 12.669 6.366 10.5002C7.61817 8.33133 10.4694 7.11001 14.4416 7.19247C18.3727 7.27413 23.1551 8.64635 27.8205 11.3399C32.4858 14.0335 36.0654 17.489 38.1017 20.8526C40.1592 24.2515 40.5271 27.3313 39.275 29.5002Z" stroke="#101821" stroke-width="2"/>
</svg>
