<svg width="40" height="39" viewBox="0 0 40 39" fill="none" xmlns="http://www.w3.org/2000/svg">
<path d="M39.9918 18.624C39.9918 15.5272 37.4949 12.9987 34.4186 12.9987H25.8017V6.73109C25.8017 4.07908 25.0347 2.16831 23.5169 1.04821C21.1179 -0.730785 17.8213 0.282252 17.6826 0.331668C17.2664 0.463445 16.9808 0.85054 16.9808 1.29529V8.33712C16.9808 13.88 10.6079 15.7661 10.3386 15.8484C10.257 15.8731 10.1836 15.8978 10.1183 15.939C9.64504 14.9836 8.66585 14.3247 7.53978 14.3247H2.8723C1.28927 14.3247 0 15.626 0 17.2238V34.3466C0 35.9444 1.28927 37.2457 2.8723 37.2457H5.57324C6.12811 37.2457 6.57691 36.7927 6.57691 36.2327C6.57691 35.6726 6.11995 35.2279 5.57324 35.2279H2.8723C2.39086 35.2279 1.99918 34.8326 1.99918 34.3466V17.2238C1.99918 16.7379 2.39086 16.3426 2.8723 16.3426H7.54794C8.02938 16.3426 8.42105 16.7379 8.42105 17.2238V33.3748C8.42105 36.4715 10.918 39 13.9943 39H31.0649C34.8511 39 37.2583 36.9986 37.6826 33.5395L39.9837 18.9616C39.9918 18.9122 40 18.8546 40 18.8052V18.624H39.9918ZM37.9927 18.7146L35.6997 33.2512C35.3978 35.722 33.8393 36.9822 31.0649 36.9822H30.4284H13.9943C12.0277 36.9822 10.4202 35.3679 10.4202 33.3748V17.8004C10.5671 17.8333 10.7222 17.8251 10.8772 17.7839C11.2118 17.6933 18.98 15.4201 18.98 8.32889V2.10242C19.8286 1.97065 21.2811 1.89652 22.3337 2.67071C23.3048 3.39548 23.8025 4.75444 23.8025 6.73109V14.0118C23.8025 14.5718 24.2513 15.0248 24.8062 15.0248H34.4268C36.3933 15.0248 38.0008 16.6391 38.0008 18.6322V18.7146H37.9927Z" fill="#101821"/>
</svg>
