<svg width="20" height="20" viewBox="0 0 20 20" fill="none" xmlns="http://www.w3.org/2000/svg">
<rect width="20" height="20" fill="#3DAD2C"/>
<path d="M16.3754 5.4753C14.1351 1.99858 9.54737 0.968438 5.99934 3.12529C2.53707 5.28215 1.42228 9.98217 3.66257 13.4482L3.8448 13.7272L3.09446 16.5386L5.90287 15.7874L6.18157 15.9699C7.39283 16.6244 8.71128 17 10.019 17C11.4232 17 12.8274 16.6244 14.0387 15.8733C17.5009 13.6199 18.53 9.01641 16.3754 5.45384V5.4753ZM14.4138 12.7077C14.0387 13.2657 13.567 13.6413 12.9132 13.7379C12.538 13.7379 12.0664 13.9203 10.2012 13.1799C8.6148 12.4288 7.29635 11.2055 6.36379 9.79975C5.8064 9.14518 5.51698 8.29746 5.43123 7.44974C5.43123 6.69859 5.70993 6.04403 6.18157 5.57188C6.36379 5.38946 6.55674 5.29288 6.73896 5.29288H7.2106C7.39283 5.29288 7.58577 5.29288 7.68224 5.66845C7.86447 6.1406 8.33611 7.26732 8.33611 7.36389C8.43258 7.46047 8.3897 8.17942 7.96094 8.58719C7.72512 8.85545 7.68224 8.86618 7.77871 9.05933C8.15388 9.61733 8.62552 10.186 9.08645 10.6582C9.64384 11.1303 10.212 11.5059 10.8658 11.7849C11.048 11.8815 11.241 11.8815 11.3375 11.6883C11.4339 11.5059 11.8949 11.0338 12.0878 10.8406C12.27 10.6582 12.3665 10.6582 12.5594 10.744L14.0601 11.4952C14.2423 11.5918 14.4353 11.6776 14.5318 11.7742C14.6282 12.0532 14.6282 12.4288 14.4353 12.7077H14.4138Z" fill="white"/>
</svg>
