<svg width="168" height="57" viewBox="0 0 168 57" fill="none" xmlns="http://www.w3.org/2000/svg">
<path d="M52.4082 38.3196H15.3236L0 56.2992H37.0845L52.4082 38.3196Z" fill="#3DAD2C"/>
<path d="M48.6299 0.138855L34.4258 16.6607L66.7523 56.2992H94.2509L48.6299 0.138855Z" fill="#3DAD2C"/>
<path d="M103.417 28.2538C103.417 31.1 104.607 33.6685 106.426 35.4734C108.315 37.3477 110.834 38.4584 113.703 38.4584H168V56.4381H114.123C106.286 56.4381 99.1489 53.3142 93.9711 48.1772C88.7932 43.0401 85.6445 36.0287 85.6445 28.1843C85.6445 12.5649 98.3792 -0.069397 114.123 -0.069397H168V17.9103H113.703C108.035 17.9797 103.417 22.5614 103.417 28.2538Z" fill="#3DAD2C"/>
</svg>
