<svg width="117" height="81" viewBox="0 0 117 81" fill="none" xmlns="http://www.w3.org/2000/svg">
<g clip-path="url(#clip0_24024_947)">
<path d="M4.58059 61.9498H10.4282L11.1591 63.6464H15.0087L9.64848 51.9156H5.36027L0 63.6948H3.84965L4.58059 61.9498ZM5.7501 59.1867L6.67597 56.9569C6.77343 56.763 6.82216 56.5692 6.87089 56.3753L7.45564 54.921L9.25864 59.1383H5.7501V59.1867Z" fill="#F4F4F4"/>
<path d="M23.0491 58.1688C22.8055 58.2657 22.5131 58.3142 22.172 58.4111C21.8309 58.4596 21.3923 58.5081 20.9537 58.5565C20.4665 58.605 20.0279 58.6535 19.5406 58.7504C19.0533 58.8474 18.566 58.8959 18.1274 59.0413C17.6889 59.1382 17.2503 59.3321 16.9092 59.526C16.5681 59.7199 16.2757 60.0108 16.0321 60.3016C15.8371 60.5925 15.6909 60.9802 15.6909 61.465C15.6909 61.8043 15.7884 62.1436 15.9346 62.4345C16.0808 62.7253 16.3732 63.0161 16.763 63.21C17.1528 63.4524 17.6889 63.5978 18.3711 63.7433C19.0533 63.8887 19.9304 63.9372 20.9537 63.9372C22.0745 63.9372 23.0004 63.8402 23.7313 63.6463C24.4623 63.4524 25.0958 63.21 25.5831 62.9192C26.0704 62.6284 26.4115 62.289 26.6064 61.9012C26.8013 61.5135 26.8988 61.1257 26.8988 60.6894V60.5925H23.6339V60.6409C23.6339 60.7863 23.5852 60.8833 23.5364 61.0287C23.4877 61.1741 23.3415 61.2711 23.1466 61.368C22.9517 61.465 22.708 61.5619 22.4156 61.6104C22.1233 61.6589 21.6847 61.7074 21.1974 61.7074C20.7101 61.7074 20.3203 61.7074 20.0279 61.6589C19.7355 61.6104 19.4919 61.5619 19.3457 61.5135C19.1995 61.465 19.102 61.368 19.0533 61.3196C19.0046 61.2226 19.0046 61.1257 19.0046 61.0287C19.0046 60.8833 19.102 60.7379 19.3457 60.6409C19.5406 60.544 19.833 60.447 20.2228 60.3986C20.5639 60.3501 21.0025 60.3016 21.441 60.2531C21.8796 60.2047 22.3669 60.1562 22.8542 60.1077C23.3415 60.0592 23.8288 59.9623 24.2674 59.8169C24.7547 59.7199 25.1445 59.5745 25.4856 59.3806C25.8267 59.1867 26.1191 58.9443 26.3627 58.6535C26.6064 58.3626 26.7039 57.9749 26.7039 57.5871C26.7039 57.1993 26.6064 56.86 26.4115 56.5691C26.2166 56.2298 25.9242 55.9874 25.4856 55.7451C25.047 55.5027 24.511 55.3088 23.8288 55.2118C23.1466 55.0664 22.2695 55.0179 21.2461 55.0179C20.4665 55.0179 19.7355 55.0664 19.0533 55.2118C18.3711 55.3573 17.7863 55.5512 17.299 55.7935C16.8117 56.0359 16.4219 56.3752 16.1295 56.8115C15.8371 57.1993 15.6909 57.684 15.6422 58.2657H18.9071C18.9558 57.5871 19.6868 57.2962 21.0999 57.2962C21.5872 57.2962 21.9771 57.2962 22.2695 57.3447C22.5618 57.3932 22.8055 57.4416 22.9517 57.4901C23.0979 57.5386 23.1953 57.6355 23.244 57.7325C23.2928 57.8294 23.3415 57.9264 23.3415 57.9749C23.3902 57.9749 23.2928 58.0718 23.0491 58.1688Z" fill="#F4F4F4"/>
<path d="M43.3207 62.5799C43.8567 62.9677 44.4902 63.307 45.2211 63.5494C46.0008 63.7918 46.8779 63.8887 47.9013 63.8887C48.9246 63.8887 49.8017 63.7918 50.5327 63.5494C51.3123 63.307 51.9458 62.9677 52.4331 62.5799C52.9204 62.1921 53.3103 61.7074 53.6026 61.1742C53.8463 60.6409 53.9925 60.0593 53.9925 59.4291C53.9925 58.7989 53.8463 58.2172 53.6026 57.684C53.359 57.1508 52.9692 56.6661 52.4331 56.2298C51.9458 55.842 51.3123 55.5027 50.5327 55.2603C49.753 55.018 48.8759 54.921 47.9013 54.921C46.8779 54.921 46.0008 55.018 45.2211 55.2603C44.4415 55.5027 43.808 55.7936 43.3207 56.2298C42.7847 56.6176 42.4435 57.1023 42.1999 57.684C41.9562 58.2172 41.8101 58.7989 41.8101 59.4291C41.8101 60.0593 41.9562 60.6409 42.1999 61.1742C42.3948 61.7074 42.7847 62.1436 43.3207 62.5799ZM45.1724 58.6535C45.2699 58.4111 45.4648 58.1688 45.7084 58.0234C45.9521 57.8295 46.2445 57.684 46.6343 57.5871C46.9754 57.4901 47.414 57.4417 47.9013 57.4417C48.3886 57.4417 48.8271 57.4901 49.1682 57.5871C49.5093 57.684 49.8017 57.8295 50.0454 58.0234C50.289 58.2172 50.4839 58.4111 50.5814 58.6535C50.6789 58.8959 50.7763 59.1383 50.7763 59.4291C50.7763 59.9623 50.5327 60.447 50.0454 60.8348C49.5581 61.2226 48.8271 61.4165 47.9013 61.4165C46.9754 61.4165 46.1957 61.2226 45.7084 60.8348C45.2211 60.447 44.9775 59.9623 44.9775 59.4291C44.9775 59.1383 45.0262 58.8959 45.1724 58.6535Z" fill="#F4F4F4"/>
<path d="M59.0117 57.9749C59.2553 57.781 59.499 57.6356 59.8401 57.5386C60.1812 57.4417 60.571 57.3932 61.0096 57.3932C61.4481 57.3932 61.7892 57.4417 62.1304 57.4902C62.4227 57.5871 62.7151 57.684 62.91 57.781C63.105 57.9264 63.2999 58.0718 63.4461 58.2173C63.5922 58.3627 63.641 58.5566 63.6897 58.7505H66.9059C66.8571 58.1688 66.6622 57.6356 66.3698 57.1993C66.0775 56.7146 65.6876 56.3268 65.1516 55.9875C64.6643 55.6481 64.0308 55.3573 63.3486 55.1634C62.6664 54.9695 61.8867 54.8726 61.0096 54.8726C60.035 54.8726 59.2066 54.9695 58.4756 55.2119C57.7447 55.4542 57.1112 55.7451 56.6239 56.1814C56.1366 56.5691 55.7468 57.0539 55.5031 57.6356C55.2595 58.1688 55.1133 58.7505 55.1133 59.3806C55.1133 60.0108 55.2595 60.5925 55.5031 61.1257C55.7468 61.6589 56.1366 62.1437 56.6239 62.5314C57.1112 62.9192 57.7447 63.2586 58.4756 63.5009C59.2066 63.7433 60.0837 63.8402 61.0096 63.8402C61.8867 63.8402 62.6664 63.7433 63.3486 63.5494C64.0308 63.3555 64.6643 63.0647 65.1516 62.7253C65.6389 62.386 66.0775 61.9982 66.3698 61.5135C66.6622 61.0288 66.8571 60.4955 66.9059 59.9623H63.6897C63.641 60.1562 63.5435 60.3016 63.4461 60.4955C63.2999 60.641 63.1537 60.8349 62.91 60.9318C62.6664 61.0772 62.4227 61.1742 62.1304 61.2226C61.838 61.3196 61.4481 61.3196 61.0096 61.3196C60.571 61.3196 60.1812 61.2711 59.8401 61.1742C59.499 61.0772 59.2066 60.9318 59.0117 60.7379C58.768 60.544 58.6218 60.3501 58.4756 60.1077C58.3782 59.8654 58.2807 59.623 58.2807 59.3322C58.2807 59.0413 58.3294 58.799 58.4756 58.5566C58.6218 58.4112 58.8167 58.1688 59.0117 57.9749Z" fill="#F4F4F4"/>
<path d="M67.8318 57.8294H71.3891V63.6948H74.6052V57.8294H78.1138V55.1149H67.8318V57.8294Z" fill="#F4F4F4"/>
<path d="M90.6373 61.1257C90.5398 61.0288 90.4911 60.8833 90.4911 60.6894V59.2352C90.4911 58.6051 90.3936 58.0234 90.15 57.4902C89.9063 56.9569 89.5652 56.5207 89.0779 56.1329C88.5906 55.7451 88.0059 55.4542 87.3237 55.2119C86.5927 55.018 85.7643 54.8726 84.7897 54.8726C83.8639 54.8726 83.0355 54.9695 82.3532 55.1634C81.671 55.3573 81.0863 55.5997 80.6477 55.8905C80.1604 56.1814 79.8193 56.5691 79.5757 57.0054C79.332 57.4417 79.1858 57.8779 79.1371 58.3627H82.3532C82.402 58.2173 82.4994 58.0718 82.5969 57.9264C82.6944 57.781 82.8893 57.6841 83.0842 57.5871C83.2791 57.4902 83.5228 57.3932 83.8151 57.3447C84.1075 57.2963 84.4486 57.2478 84.8385 57.2478C85.7156 57.2478 86.3491 57.4417 86.7877 57.781C87.2262 58.1203 87.4211 58.6051 87.4211 59.1383V59.623C87.1775 59.5261 86.9338 59.3806 86.6902 59.2837C86.4465 59.1867 86.1542 59.0898 85.8131 58.9928C85.472 58.8959 85.1308 58.8474 84.741 58.799C84.3512 58.7505 83.9126 58.702 83.3766 58.702C82.6456 58.702 82.0609 58.7505 81.5736 58.8959C81.0863 59.0413 80.6477 59.1867 80.3553 59.4291C80.0629 59.6715 79.8193 59.9139 79.6731 60.2532C79.5269 60.544 79.4782 60.8833 79.4782 61.2711C79.4782 61.6589 79.5269 61.9982 79.6731 62.2891C79.8193 62.6284 80.0629 62.8708 80.3553 63.1131C80.6477 63.3555 81.0863 63.5494 81.5736 63.6463C82.0609 63.7918 82.6944 63.8402 83.3766 63.8402C84.1562 63.8402 84.7897 63.7918 85.3258 63.6948C85.8618 63.5979 86.3004 63.4525 86.6415 63.307C86.9826 63.1616 87.2262 62.9677 87.3724 62.7738C87.5186 62.5799 87.6161 62.386 87.6161 62.1921V62.1437H87.9084V62.1921C87.9084 62.6769 88.1034 63.1131 88.4445 63.404C88.8343 63.7433 89.3703 63.8887 90.15 63.8887C90.3936 63.8887 90.6373 63.8887 90.8809 63.8402C91.0759 63.7918 91.3195 63.7433 91.4657 63.6948V61.2226C91.3195 61.2711 91.2221 61.2711 91.0271 61.2711C90.8322 61.2711 90.7348 61.2226 90.6373 61.1257ZM87.3724 61.3196C86.9826 61.465 86.544 61.562 86.1054 61.6589C85.6669 61.7559 85.1308 61.8043 84.5461 61.8043C84.1562 61.8043 83.8151 61.8043 83.5715 61.7559C83.3278 61.7074 83.1329 61.6589 82.9867 61.6104C82.8405 61.562 82.7431 61.465 82.6944 61.4165C82.6456 61.3196 82.5969 61.2711 82.5969 61.1742C82.5969 61.0772 82.6456 60.9803 82.6944 60.8833C82.7431 60.7864 82.8405 60.7379 82.9867 60.6894C83.1329 60.641 83.3278 60.5925 83.5715 60.544C83.8151 60.4955 84.1562 60.4955 84.5461 60.4955C85.1308 60.4955 85.6181 60.544 86.1054 60.641C86.544 60.7379 86.9826 60.8349 87.4211 60.9803V61.3196H87.3724Z" fill="#F4F4F4"/>
<path d="M94.633 59.9138C94.5843 60.3016 94.4868 60.5439 94.2919 60.7863C94.097 60.9802 93.8046 61.0772 93.3661 61.0772C93.2686 61.0772 93.1224 61.0772 93.0249 61.0772C92.9275 61.0772 92.7813 61.0287 92.6838 60.9802V63.6463C92.83 63.7432 93.0737 63.7917 93.3173 63.8402C93.561 63.8886 93.9021 63.9371 94.2432 63.9371C95.2178 63.9371 95.9975 63.6947 96.5335 63.1615C97.1182 62.6283 97.4593 61.8527 97.5568 60.7378L97.8979 57.8294H101.406V63.6947H104.623V55.1633H95.1203L94.633 59.9138Z" fill="#F4F4F4"/>
<path d="M115.977 58.1687C115.343 57.587 114.369 57.2962 113.102 57.2962H109.934V55.1149H106.718V63.6463H113.102C114.369 63.6463 115.343 63.3554 115.977 62.7738C116.61 62.1921 116.903 61.4165 116.903 60.447C116.903 59.4775 116.561 58.7019 115.977 58.1687ZM113.394 61.1256C113.199 61.2711 112.907 61.368 112.566 61.368H109.739V59.5745H112.566C112.955 59.5745 113.199 59.6714 113.394 59.8168C113.589 59.9623 113.686 60.2046 113.686 60.447C113.686 60.7378 113.589 60.9317 113.394 61.1256Z" fill="#F4F4F4"/>
<path d="M31.8204 61.7074C32.1128 62.386 32.5026 62.9192 33.0874 63.2586C33.7696 63.6948 34.6955 63.8887 35.865 63.8887C36.5959 63.8887 37.2294 63.7918 37.7654 63.5494C38.3502 63.307 38.8375 63.0162 39.2273 62.6284C39.6172 62.2406 39.9583 61.7559 40.1532 61.2227C40.3968 60.6894 40.4943 60.0593 40.4943 59.3806C40.4943 58.702 40.3968 58.0718 40.1532 57.5386C39.9583 57.0054 39.6172 56.5207 39.2273 56.1329C38.8375 55.7451 38.3015 55.4542 37.7654 55.2119C37.1807 54.9695 36.5472 54.8726 35.865 54.8726C34.6955 54.8726 33.7696 55.0665 33.0874 55.5027C32.5026 55.8905 32.0641 56.4237 31.8204 57.1024V55.1149H28.6042V65.4399H31.8204V61.7074ZM32.0641 58.6535C32.1615 58.4112 32.3564 58.2173 32.5514 58.0234C32.795 57.8295 33.0387 57.6841 33.3798 57.5871C33.7209 57.4902 34.1107 57.4417 34.5493 57.4417C35.0366 57.4417 35.4264 57.4902 35.7675 57.5871C36.1086 57.6841 36.401 57.8295 36.6446 58.0234C36.8883 58.2173 37.0345 58.4112 37.1807 58.6535C37.2781 58.8959 37.3269 59.1383 37.3269 59.4291C37.3269 59.9623 37.0832 60.4471 36.6446 60.8349C36.2061 61.2227 35.5239 61.4165 34.598 61.4165C34.1594 61.4165 33.7696 61.3681 33.4285 61.2711C33.0874 61.1742 32.795 61.0288 32.6001 60.8349C32.3564 60.641 32.2102 60.4471 32.1128 60.2047C32.0153 59.9623 31.9666 59.72 31.9666 59.4291C31.8691 59.1383 31.9666 58.8959 32.0641 58.6535Z" fill="#F4F4F4"/>
<path d="M36.4985 26.7576H10.6718L0 39.3123H25.8267L36.4985 26.7576Z" fill="#3DAD2C"/>
<path d="M33.8671 0.0969238L23.975 11.6337L46.4881 39.3124H65.6389L33.8671 0.0969238Z" fill="#3DAD2C"/>
<path d="M72.0225 19.7289C72.0225 21.7163 72.8509 23.5099 74.1179 24.7702C75.4336 26.079 77.1878 26.8546 79.1857 26.8546H117V39.4093H79.4781C74.0204 39.4093 69.05 37.228 65.444 33.6409C61.838 30.0539 59.6451 25.158 59.6451 19.6804C59.6451 8.7738 68.5139 -0.0484619 79.4781 -0.0484619H117V12.5063H79.1857C75.2386 12.5548 72.0225 15.7541 72.0225 19.7289Z" fill="#3DAD2C"/>
<path d="M11.1591 80.8061H7.3582L3.99585 76.8312V80.8061H0.974609V72.7109H3.99585V76.3465L7.26074 72.7109H11.0129L7.26074 76.5889L11.1591 80.8061Z" fill="#F4F4F4"/>
<path d="M16.6656 81C15.691 81 14.8626 80.9031 14.1804 80.6607C13.4494 80.4184 12.8647 80.1275 12.3774 79.7397C11.8901 79.3519 11.549 78.9157 11.3053 78.3825C11.0617 77.8492 10.9642 77.316 10.9642 76.7343C10.9642 76.1527 11.0617 75.6194 11.3053 75.0862C11.549 74.553 11.8901 74.1167 12.3774 73.729C12.8647 73.3412 13.4494 73.0503 14.1804 72.8079C14.9113 72.5656 15.7397 72.4686 16.6656 72.4686C17.6402 72.4686 18.4686 72.5656 19.1508 72.8079C19.8818 73.0503 20.4665 73.3412 20.9538 73.729C21.4411 74.1167 21.7822 74.553 22.0259 75.0862C22.2695 75.6194 22.4157 76.1527 22.4157 76.7343C22.4157 77.316 22.2695 77.8492 22.0259 78.3825C21.7822 78.9157 21.4411 79.3519 20.9538 79.7397C20.4665 80.1275 19.8818 80.4184 19.1508 80.6607C18.4686 80.9031 17.6402 81 16.6656 81ZM16.6656 78.6733C17.5915 78.6733 18.2737 78.4794 18.7123 78.1401C19.1508 77.7523 19.3945 77.316 19.3945 76.8313C19.3945 76.5889 19.3457 76.3465 19.2483 76.1042C19.1508 75.8618 18.9559 75.6679 18.761 75.474C18.5173 75.2801 18.225 75.1832 17.9326 75.0377C17.5915 74.9408 17.2016 74.8923 16.7143 74.8923C16.2758 74.8923 15.8372 74.9408 15.4961 75.0377C15.155 75.1347 14.8626 75.2801 14.6677 75.474C14.424 75.6679 14.2779 75.8618 14.1804 76.1042C14.0829 76.3465 14.0342 76.5889 14.0342 76.8313C14.0342 77.3645 14.2779 77.8008 14.7164 78.1401C15.1063 78.4794 15.7885 78.6733 16.6656 78.6733Z" fill="#F4F4F4"/>
<path d="M23.975 80.8061V72.7109H28.4581L29.8713 76.4919C29.9687 76.7828 30.0175 77.0251 30.1149 77.2675C30.1636 77.5099 30.2124 77.7522 30.2124 77.8976V77.9946H30.5048V77.8976C30.5048 77.7038 30.5535 77.5099 30.6022 77.2675C30.6509 77.0251 30.7484 76.7343 30.8459 76.4919L32.1616 72.7109H36.6934V80.7576H33.8184V76.7827C33.8184 76.298 33.8671 75.8133 33.9158 75.4255C33.9646 75.0377 34.062 74.6499 34.1108 74.3106H33.8184L31.7717 79.6427H28.8967L26.85 74.3106H26.5576C26.6551 74.6499 26.7038 74.9892 26.7526 75.4255C26.8013 75.8133 26.85 76.298 26.85 76.7827V80.7576H23.975V80.8061Z" fill="#F4F4F4"/>
<path d="M38.5939 80.8061V72.7109H49.0708V80.8061H46.0495V75.2801H41.6638V80.8061H38.5939Z" fill="#F4F4F4"/>
<path d="M51.7021 81C51.361 81 51.0687 80.9515 50.825 80.9515C50.5814 80.903 50.3864 80.8546 50.1915 80.7576V78.237C50.289 78.2854 50.4352 78.3339 50.5326 78.3339C50.6301 78.3339 50.7276 78.3339 50.825 78.3339C51.2149 78.3339 51.5072 78.237 51.6534 78.0431C51.8483 77.8492 51.9458 77.6068 51.9945 77.219L52.5306 72.7109H61.4968V80.7576H58.4756V75.2316H55.162L54.8208 77.9461C54.7234 78.9641 54.3823 79.7397 53.8463 80.2244C53.359 80.7576 52.628 81 51.7021 81Z" fill="#F4F4F4"/>
<path d="M74.3128 76.7827C74.3128 76.8797 74.3128 77.0251 74.3128 77.122C74.3128 77.2675 74.2641 77.3644 74.2641 77.5098H65.9801C66.1262 77.8976 66.4186 78.2369 66.9059 78.4308C67.3445 78.6732 67.978 78.7701 68.7089 78.7701C69.1475 78.7701 69.4886 78.7701 69.781 78.7217C70.0733 78.6732 70.317 78.6247 70.5119 78.5278C70.7068 78.4308 70.853 78.3824 70.9992 78.2854C71.1454 78.1885 71.2429 78.14 71.2916 78.043H74.2154C74.1179 78.3339 73.923 78.6247 73.6793 78.964C73.4357 79.3034 73.0946 79.5942 72.656 79.885C72.2175 80.1759 71.6814 80.4183 70.9992 80.6122C70.3657 80.8061 69.5861 80.903 68.6602 80.903C67.7343 80.903 66.9059 80.8061 66.2237 80.5637C65.5415 80.3213 64.9567 80.0305 64.4694 79.6427C63.9821 79.2549 63.641 78.8186 63.3974 78.2854C63.1537 77.7522 63.0563 77.219 63.0563 76.6373C63.0563 76.0556 63.1537 75.5224 63.3974 74.9892C63.641 74.456 63.9821 74.0197 64.4694 73.6319C64.9567 73.2441 65.5415 72.9533 66.2237 72.7109C66.9546 72.4685 67.7343 72.3716 68.6602 72.3716C69.5861 72.3716 70.4145 72.4685 71.0967 72.7109C71.7789 72.9533 72.4124 73.2441 72.8509 73.6319C73.3382 74.0197 73.6793 74.456 73.923 74.9892C74.2154 75.6678 74.3128 76.201 74.3128 76.7827ZM68.6602 74.6499C67.8805 74.6499 67.2958 74.7468 66.8572 74.9892C66.4186 75.2315 66.1262 75.5709 65.9313 75.9587H71.3891C71.2429 75.5709 70.9018 75.2315 70.4632 74.9892C70.0246 74.7953 69.4399 74.6499 68.6602 74.6499Z" fill="#F4F4F4"/>
<path d="M86.0566 80.8061H82.2069L78.8933 76.8312V80.8061H75.8721V72.7109H78.8933V76.3465L82.1582 72.7109H85.9104L82.1582 76.5889L86.0566 80.8061Z" fill="#F4F4F4"/>
<path d="M90.1986 80.8061V75.2801H86.885V72.7109H96.5822V75.2801H93.2199V80.8061H90.1986Z" fill="#F4F4F4"/>
</g>
<defs>
<clipPath id="clip0_24024_947">
<rect width="117" height="81" fill="white"/>
</clipPath>
</defs>
</svg>
