<svg width="168" height="116" viewBox="0 0 168 116" fill="none" xmlns="http://www.w3.org/2000/svg">
<g clip-path="url(#clip0_24010_562)">
<path d="M6.57726 88.7181H14.9738L16.0233 91.1478H21.551L13.8542 74.3483H7.69679L0 91.2172H5.5277L6.57726 88.7181ZM8.25656 84.7612L9.58601 81.5679C9.72595 81.2902 9.79592 81.0125 9.86589 80.7349L10.7055 78.6523L13.2945 84.6918H8.25656V84.7612Z" fill="#38383B"/>
<path d="M33.0965 83.3034C32.7467 83.4422 32.3268 83.5117 31.837 83.6505C31.3472 83.7199 30.7175 83.7893 30.0878 83.8588C29.3881 83.9282 28.7583 83.9976 28.0586 84.1364C27.3589 84.2753 26.6592 84.3447 26.0295 84.553C25.3997 84.6918 24.77 84.9695 24.2802 85.2472C23.7904 85.5248 23.3706 85.9413 23.0207 86.3579C22.7408 86.7744 22.5309 87.3297 22.5309 88.0239C22.5309 88.5099 22.6709 88.9958 22.8808 89.4123C23.0907 89.8288 23.5105 90.2454 24.0703 90.523C24.63 90.8701 25.3997 91.0784 26.3793 91.2866C27.3589 91.4949 28.6184 91.5643 30.0878 91.5643C31.6971 91.5643 33.0265 91.4255 34.0761 91.1478C35.1257 90.8701 36.0353 90.523 36.735 90.1065C37.4347 89.69 37.9245 89.2041 38.2044 88.6487C38.4843 88.0933 38.6242 87.538 38.6242 86.9132V86.7744H33.9362V86.8438C33.9362 87.0521 33.8662 87.1909 33.7962 87.3992C33.7262 87.6074 33.5163 87.7463 33.2364 87.8851C32.9566 88.0239 32.6067 88.1628 32.1869 88.2322C31.7671 88.3016 31.1373 88.371 30.4376 88.371C29.7379 88.371 29.1781 88.371 28.7583 88.3016C28.3385 88.2322 27.9886 88.1628 27.7787 88.0934C27.5688 88.0239 27.4289 87.8851 27.3589 87.8157C27.2889 87.6768 27.2889 87.538 27.2889 87.3992C27.2889 87.1909 27.4289 86.9826 27.7787 86.8438C28.0586 86.705 28.4784 86.5661 29.0382 86.4967C29.528 86.4273 30.1577 86.3579 30.7875 86.2884C31.4172 86.219 32.1169 86.1496 32.8166 86.0802C33.5163 86.0108 34.216 85.8719 34.8458 85.6637C35.5455 85.5248 36.1053 85.3166 36.595 85.0389C37.0848 84.7612 37.5047 84.4141 37.8545 83.9976C38.2044 83.5811 38.3443 83.0257 38.3443 82.4704C38.3443 81.915 38.2044 81.4291 37.9245 81.0126C37.6446 80.5266 37.2248 80.1795 36.595 79.8324C35.9653 79.4853 35.1956 79.2077 34.216 79.0688C33.2364 78.8606 31.977 78.7911 30.5076 78.7911C29.3881 78.7911 28.3385 78.8606 27.3589 79.0688C26.3793 79.2771 25.5397 79.5548 24.8399 79.9018C24.1402 80.2489 23.5805 80.7349 23.1606 81.3597C22.7408 81.915 22.5309 82.6092 22.4609 83.4422H27.149C27.219 82.4704 28.2685 82.0539 30.2977 82.0539C30.9974 82.0539 31.5571 82.0539 31.977 82.1233C32.3968 82.1927 32.7467 82.2621 32.9566 82.3315C33.1665 82.401 33.3064 82.5398 33.3764 82.6786C33.4464 82.8175 33.5163 82.9563 33.5163 83.0257C33.5863 83.0257 33.4464 83.1646 33.0965 83.3034Z" fill="#38383B"/>
<path d="M62.2043 89.6206C62.9739 90.176 63.8836 90.6619 64.9331 91.009C66.0526 91.3561 67.3121 91.495 68.7815 91.495C70.2509 91.495 71.5104 91.3561 72.5599 91.009C73.6795 90.6619 74.5891 90.176 75.2888 89.6206C75.9885 89.0653 76.5483 88.3711 76.9681 87.6075C77.318 86.8438 77.5279 86.0108 77.5279 85.1084C77.5279 84.2059 77.318 83.3729 76.9681 82.6093C76.6182 81.8456 76.0585 81.1514 75.2888 80.5267C74.5891 79.9713 73.6795 79.4854 72.5599 79.1383C71.4404 78.7912 70.1809 78.6523 68.7815 78.6523C67.3121 78.6523 66.0526 78.7912 64.9331 79.1383C63.8136 79.4854 62.904 79.9019 62.2043 80.5267C61.4346 81.082 60.9448 81.7762 60.5949 82.6093C60.2451 83.3729 60.0352 84.2059 60.0352 85.1084C60.0352 86.0108 60.2451 86.8438 60.5949 87.6075C60.8748 88.3711 61.4346 88.9959 62.2043 89.6206ZM64.8631 83.9976C65.0031 83.6505 65.283 83.3034 65.6328 83.0952C65.9827 82.8175 66.4025 82.6093 66.9623 82.4704C67.4521 82.3316 68.0818 82.2622 68.7815 82.2622C69.4812 82.2622 70.111 82.3316 70.6008 82.4704C71.0905 82.6093 71.5104 82.8175 71.8602 83.0952C72.2101 83.3729 72.49 83.6505 72.6299 83.9976C72.7698 84.3447 72.9098 84.6918 72.9098 85.1084C72.9098 85.872 72.5599 86.5662 71.8602 87.1215C71.1605 87.6769 70.111 87.9546 68.7815 87.9546C67.4521 87.9546 66.3325 87.6769 65.6328 87.1215C64.9331 86.5662 64.5833 85.872 64.5833 85.1084C64.5833 84.6918 64.6532 84.3447 64.8631 83.9976Z" fill="#38383B"/>
<path d="M84.7349 83.0257C85.0847 82.7481 85.4346 82.5398 85.9244 82.401C86.4142 82.2621 86.9739 82.1927 87.6037 82.1927C88.2334 82.1927 88.7232 82.2621 89.213 82.3315C89.6328 82.4704 90.0527 82.6092 90.3326 82.7481C90.6124 82.9563 90.8923 83.1646 91.1022 83.3728C91.3121 83.5811 91.3821 83.8588 91.4521 84.1364H96.0702C96.0002 83.3034 95.7203 82.5398 95.3005 81.915C94.8806 81.2208 94.3209 80.6655 93.5512 80.1795C92.8515 79.6936 91.9419 79.2771 90.9623 78.9994C89.9827 78.7217 88.8632 78.5829 87.6037 78.5829C86.2043 78.5829 85.0148 78.7217 83.9652 79.0688C82.9156 79.4159 82.006 79.8324 81.3063 80.4572C80.6066 81.0126 80.0468 81.7068 79.697 82.5398C79.3471 83.3034 79.1372 84.1364 79.1372 85.0389C79.1372 85.9414 79.3471 86.7744 79.697 87.538C80.0468 88.3016 80.6066 88.9958 81.3063 89.5512C82.006 90.1065 82.9156 90.5925 83.9652 90.9396C85.0148 91.2867 86.2742 91.4255 87.6037 91.4255C88.8632 91.4255 89.9827 91.2867 90.9623 91.009C91.9419 90.7313 92.8515 90.3148 93.5512 89.8288C94.2509 89.3429 94.8806 88.7876 95.3005 88.0934C95.7203 87.3992 96.0002 86.6355 96.0702 85.8719H91.4521C91.3821 86.1496 91.2422 86.3579 91.1022 86.6356C90.8923 86.8438 90.6824 87.1215 90.3326 87.2603C89.9827 87.4686 89.6328 87.6074 89.213 87.6768C88.7932 87.8157 88.2334 87.8157 87.6037 87.8157C86.9739 87.8157 86.4142 87.7463 85.9244 87.6074C85.4346 87.4686 85.0148 87.2603 84.7349 86.9827C84.385 86.705 84.1751 86.4273 83.9652 86.0802C83.8253 85.7331 83.6853 85.386 83.6853 84.9695C83.6853 84.553 83.7553 84.2059 83.9652 83.8588C84.1751 83.6505 84.455 83.3034 84.7349 83.0257Z" fill="#38383B"/>
<path d="M97.3994 82.8174H102.507V91.2172H107.125V82.8174H112.163V78.9299H97.3994V82.8174Z" fill="#38383B"/>
<path d="M130.146 87.538C130.006 87.3992 129.936 87.1909 129.936 86.9132V84.8306C129.936 83.9282 129.796 83.0952 129.446 82.3315C129.096 81.5679 128.607 80.9432 127.907 80.3878C127.207 79.8324 126.368 79.4159 125.388 79.0688C124.338 78.7911 123.149 78.5829 121.749 78.5829C120.42 78.5829 119.23 78.7217 118.251 78.9994C117.271 79.2771 116.432 79.6242 115.802 80.0407C115.102 80.4572 114.612 81.0126 114.263 81.6373C113.913 82.2621 113.703 82.8869 113.633 83.5811H118.251C118.321 83.3728 118.461 83.1646 118.601 82.9563C118.741 82.7481 119.021 82.6092 119.3 82.4704C119.58 82.3315 119.93 82.1927 120.35 82.1233C120.77 82.0539 121.26 81.9844 121.819 81.9844C123.079 81.9844 123.988 82.2621 124.618 82.7481C125.248 83.234 125.528 83.9282 125.528 84.6918V85.386C125.178 85.2472 124.828 85.0389 124.478 84.9001C124.128 84.7612 123.709 84.6224 123.219 84.4835C122.729 84.3447 122.239 84.2753 121.679 84.2059C121.12 84.1365 120.49 84.067 119.72 84.067C118.671 84.067 117.831 84.1364 117.131 84.3447C116.432 84.553 115.802 84.7612 115.382 85.1083C114.962 85.4554 114.612 85.8025 114.402 86.2885C114.193 86.705 114.123 87.1909 114.123 87.7463C114.123 88.3016 114.193 88.7876 114.402 89.2041C114.612 89.69 114.962 90.0371 115.382 90.3842C115.802 90.7313 116.432 91.009 117.131 91.1478C117.831 91.3561 118.741 91.4255 119.72 91.4255C120.84 91.4255 121.749 91.3561 122.519 91.2172C123.289 91.0784 123.919 90.8701 124.408 90.6619C124.898 90.4536 125.248 90.1759 125.458 89.8983C125.668 89.6206 125.808 89.3429 125.808 89.0652V88.9958H126.228V89.0652C126.228 89.7594 126.507 90.3842 126.997 90.8007C127.557 91.2867 128.327 91.4949 129.446 91.4949C129.796 91.4949 130.146 91.4949 130.496 91.4255C130.776 91.3561 131.126 91.2867 131.335 91.2172V87.6768C131.126 87.7463 130.986 87.7463 130.706 87.7463C130.426 87.7463 130.286 87.6768 130.146 87.538ZM125.458 87.8157C124.898 88.0239 124.268 88.1628 123.639 88.3016C123.009 88.4405 122.239 88.5099 121.4 88.5099C120.84 88.5099 120.35 88.5099 120 88.4405C119.65 88.371 119.37 88.3016 119.161 88.2322C118.951 88.1628 118.811 88.0239 118.741 87.9545C118.671 87.8157 118.601 87.7463 118.601 87.6074C118.601 87.4686 118.671 87.3297 118.741 87.1909C118.811 87.0521 118.951 86.9826 119.161 86.9132C119.37 86.8438 119.65 86.7744 120 86.705C120.35 86.6356 120.84 86.6356 121.4 86.6356C122.239 86.6356 122.939 86.705 123.639 86.8438C124.268 86.9826 124.898 87.1215 125.528 87.3297V87.8157H125.458Z" fill="#38383B"/>
<path d="M135.883 85.8025C135.813 86.3579 135.673 86.705 135.394 87.0521C135.114 87.3297 134.694 87.4686 134.064 87.4686C133.924 87.4686 133.714 87.4686 133.574 87.4686C133.434 87.4686 133.224 87.3992 133.084 87.3297V91.1478C133.294 91.2866 133.644 91.3561 133.994 91.4255C134.344 91.4949 134.834 91.5643 135.324 91.5643C136.723 91.5643 137.842 91.2172 138.612 90.4536C139.452 89.69 139.942 88.5793 140.082 86.9826L140.571 82.8175H145.609V91.2172H150.227V78.9994H136.583L135.883 85.8025Z" fill="#38383B"/>
<path d="M166.531 83.3034C165.621 82.4703 164.222 82.0538 162.403 82.0538H157.854V78.9299H153.236V91.1478H162.403C164.222 91.1478 165.621 90.7312 166.531 89.8982C167.44 89.0652 167.86 87.9545 167.86 86.5661C167.86 85.1777 167.37 84.067 166.531 83.3034ZM162.822 87.538C162.542 87.7462 162.123 87.885 161.633 87.885H157.575V85.3165H161.633C162.193 85.3165 162.542 85.4554 162.822 85.6636C163.102 85.8719 163.242 86.219 163.242 86.5661C163.242 86.9826 163.102 87.2603 162.822 87.538Z" fill="#38383B"/>
<path d="M45.6908 88.371C46.1107 89.3429 46.6704 90.1065 47.5101 90.5925C48.4897 91.2172 49.8191 91.4949 51.4984 91.4949C52.548 91.4949 53.4576 91.3561 54.2273 91.009C55.0669 90.6619 55.7666 90.2454 56.3264 89.69C56.8862 89.1347 57.376 88.4405 57.6558 87.6768C58.0057 86.9132 58.1456 86.0108 58.1456 85.0389C58.1456 84.067 58.0057 83.1646 57.6558 82.401C57.376 81.6373 56.8862 80.9432 56.3264 80.3878C55.7666 79.8324 54.997 79.4159 54.2273 79.0688C53.3876 78.7217 52.478 78.5829 51.4984 78.5829C49.8191 78.5829 48.4897 78.8606 47.5101 79.4853C46.6704 80.0407 46.0407 80.8043 45.6908 81.7762V78.93H41.0728V93.7163H45.6908V88.371ZM46.0407 83.9976C46.1806 83.6505 46.4605 83.3728 46.7404 83.0952C47.0902 82.8175 47.4401 82.6092 47.9299 82.4704C48.4197 82.3315 48.9795 82.2621 49.6092 82.2621C50.3089 82.2621 50.8687 82.3315 51.3585 82.4704C51.8483 82.6092 52.2681 82.8175 52.6179 83.0952C52.9678 83.3728 53.1777 83.6505 53.3876 83.9976C53.5276 84.3447 53.5975 84.6918 53.5975 85.1083C53.5975 85.8719 53.2477 86.5661 52.6179 87.1215C51.9882 87.6768 51.0086 87.9545 49.6792 87.9545C49.0494 87.9545 48.4897 87.8851 47.9999 87.7463C47.5101 87.6074 47.0902 87.3992 46.8104 87.1215C46.4605 86.8438 46.2506 86.5661 46.1107 86.219C45.9707 85.8719 45.9007 85.5248 45.9007 85.1083C45.7608 84.6918 45.9007 84.3447 46.0407 83.9976Z" fill="#38383B"/>
<path d="M52.4082 38.3196H15.3236L0 56.2992H37.0845L52.4082 38.3196Z" fill="#3DAD2C"/>
<path d="M48.6299 0.138794L34.4258 16.6606L66.7523 56.2992H94.2509L48.6299 0.138794Z" fill="#3DAD2C"/>
<path d="M103.417 28.2537C103.417 31.0999 104.607 33.6684 106.426 35.4733C108.315 37.3476 110.834 38.4584 113.703 38.4584H168V56.438H114.123C106.286 56.438 99.1489 53.3141 93.9711 48.1771C88.7932 43.0401 85.6445 36.0287 85.6445 28.1843C85.6445 12.5649 98.3792 -0.069458 114.123 -0.069458H168V17.9102H113.703C108.035 17.9796 103.417 22.5613 103.417 28.2537Z" fill="#3DAD2C"/>
<path d="M16.0233 115.722H10.5656L5.73761 110.03V115.722H1.39941V104.129H5.73761V109.336L10.4257 104.129H15.8134L10.4257 109.683L16.0233 115.722Z" fill="#38383B"/>
<path d="M23.9298 116C22.5303 116 21.3408 115.861 20.3612 115.514C19.3117 115.167 18.472 114.751 17.7723 114.195C17.0726 113.64 16.5828 113.015 16.233 112.251C15.8831 111.488 15.7432 110.724 15.7432 109.891C15.7432 109.058 15.8831 108.294 16.233 107.531C16.5828 106.767 17.0726 106.142 17.7723 105.587C18.472 105.032 19.3117 104.615 20.3612 104.268C21.4108 103.921 22.6003 103.782 23.9298 103.782C25.3292 103.782 26.5187 103.921 27.4983 104.268C28.5478 104.615 29.3875 105.032 30.0872 105.587C30.7869 106.142 31.2767 106.767 31.6265 107.531C31.9764 108.294 32.1863 109.058 32.1863 109.891C32.1863 110.724 31.9764 111.488 31.6265 112.251C31.2767 113.015 30.7869 113.64 30.0872 114.195C29.3875 114.751 28.5478 115.167 27.4983 115.514C26.5187 115.861 25.3292 116 23.9298 116ZM23.9298 112.668C25.2592 112.668 26.2388 112.39 26.8685 111.904C27.4983 111.349 27.8481 110.724 27.8481 110.03C27.8481 109.683 27.7782 109.336 27.6382 108.989C27.4983 108.642 27.2184 108.364 26.9385 108.086C26.5886 107.809 26.1688 107.67 25.749 107.461C25.2592 107.323 24.6994 107.253 23.9997 107.253C23.37 107.253 22.7402 107.323 22.2505 107.461C21.7607 107.6 21.3408 107.809 21.0609 108.086C20.7111 108.364 20.5012 108.642 20.3612 108.989C20.2213 109.336 20.1513 109.683 20.1513 110.03C20.1513 110.794 20.5012 111.418 21.1309 111.904C21.6907 112.39 22.6703 112.668 23.9298 112.668Z" fill="#38383B"/>
<path d="M34.4258 115.722V104.129H40.8631L42.8923 109.544C43.0322 109.961 43.1022 110.308 43.2421 110.655C43.3121 111.002 43.382 111.349 43.382 111.557V111.696H43.8019V111.557C43.8019 111.279 43.8718 111.002 43.9418 110.655C44.0118 110.308 44.1517 109.891 44.2917 109.544L46.1809 104.129H52.6882V115.653H48.5599V109.961C48.5599 109.266 48.6299 108.572 48.6998 108.017C48.7698 107.461 48.9097 106.906 48.9797 106.42H48.5599L45.6211 114.056H41.4928L38.5541 106.42H38.1342C38.2742 106.906 38.3441 107.392 38.4141 108.017C38.4841 108.572 38.5541 109.266 38.5541 109.961V115.653H34.4258V115.722Z" fill="#38383B"/>
<path d="M55.417 115.722V104.129H70.4607V115.722H66.1225V107.809H59.8252V115.722H55.417Z" fill="#38383B"/>
<path d="M74.2389 116C73.7491 116 73.3293 115.931 72.9794 115.931C72.6296 115.861 72.3497 115.792 72.0698 115.653V112.043C72.2098 112.113 72.4197 112.182 72.5596 112.182C72.6996 112.182 72.8395 112.182 72.9794 112.182C73.5392 112.182 73.959 112.043 74.1689 111.765C74.4488 111.488 74.5888 111.141 74.6587 110.585L75.4284 104.129H88.3031V115.653H83.9649V107.739H79.2068L78.7171 111.627C78.5771 113.084 78.0873 114.195 77.3176 114.889C76.6179 115.653 75.5684 116 74.2389 116Z" fill="#38383B"/>
<path d="M106.706 109.96C106.706 110.099 106.706 110.308 106.706 110.446C106.706 110.655 106.636 110.794 106.636 111.002H94.7407C94.9506 111.557 95.3705 112.043 96.0702 112.321C96.6999 112.668 97.6095 112.807 98.6591 112.807C99.2888 112.807 99.7786 112.807 100.198 112.737C100.618 112.668 100.968 112.598 101.248 112.46C101.528 112.321 101.738 112.251 101.948 112.112C102.158 111.974 102.298 111.904 102.368 111.765H106.566C106.426 112.182 106.146 112.598 105.796 113.084C105.446 113.57 104.956 113.987 104.327 114.403C103.697 114.82 102.927 115.167 101.948 115.445C101.038 115.722 99.9186 115.861 98.5891 115.861C97.2597 115.861 96.0702 115.722 95.0906 115.375C94.111 115.028 93.2714 114.612 92.5716 114.056C91.8719 113.501 91.3821 112.876 91.0323 112.112C90.6824 111.349 90.5425 110.585 90.5425 109.752C90.5425 108.919 90.6824 108.156 91.0323 107.392C91.3821 106.628 91.8719 106.004 92.5716 105.448C93.2714 104.893 94.111 104.476 95.0906 104.129C96.1401 103.782 97.2597 103.643 98.5891 103.643C99.9186 103.643 101.108 103.782 102.088 104.129C103.067 104.476 103.977 104.893 104.607 105.448C105.306 106.004 105.796 106.628 106.146 107.392C106.566 108.364 106.706 109.127 106.706 109.96ZM98.5891 106.906C97.4696 106.906 96.6299 107.045 96.0002 107.392C95.3705 107.739 94.9507 108.225 94.6708 108.78H102.508C102.298 108.225 101.808 107.739 101.178 107.392C100.548 107.114 99.7087 106.906 98.5891 106.906Z" fill="#38383B"/>
<path d="M123.569 115.722H118.041L113.283 110.03V115.722H108.945V104.129H113.283V109.336L117.971 104.129H123.359L117.971 109.683L123.569 115.722Z" fill="#38383B"/>
<path d="M129.516 115.722V107.809H124.758V104.129H138.682V107.809H133.854V115.722H129.516Z" fill="#38383B"/>
</g>
<defs>
<clipPath id="clip0_24010_562">
<rect width="168" height="116" fill="white"/>
</clipPath>
</defs>
</svg>
